<svg xmlns="http://www.w3.org/2000/svg" width="100" height="96" fill="none"><path fill="#A4DEF9" d="m93.744 37.82 5.047 1.664h-5.708l.661-1.664ZM7.047 37.82 2 39.484h5.708l-.661-1.664Z"/><path fill="#044D80" fill-rule="evenodd" d="M92.786 4.882H8.005C4.02 27.118 5.78 44.538 15.436 60.234c9.544 15.514 26.417 27.484 34.96 31.32 8.54-3.835 25.415-15.806 34.958-31.32C95.01 44.538 96.77 27.118 92.786 4.882Z" clip-rule="evenodd"/><path fill="#FF9D28" d="M12.98 21.629h10.871v-4.07l-10.87 4.07Z"/><path fill="#68C5ED" d="M23.851 17.558v14.388l5.14-16.306-5.14 1.918Z"/><path fill="#044D80" d="M23.852 21.629h-4.108l4.108 10.305V21.63Z"/><path fill="#E54747" d="m12.98 21.629 7.822 2.644-1.058-2.644H12.98Z"/><path fill="#fff" d="M37.895 28.147c-.062.061-.16.135-.295.221-.135.086-.32.184-.541.27a4.522 4.522 0 0 1-.824.234c-.32.062-.689.099-1.107.099-.8 0-1.5-.136-2.09-.382a3.787 3.787 0 0 1-1.452-1.082 4.389 4.389 0 0 1-.836-1.635c-.184-.628-.27-1.328-.27-2.079 0-.75.098-1.45.295-2.09.197-.64.48-1.193.873-1.66a3.91 3.91 0 0 1 1.451-1.095c.578-.258 1.267-.393 2.054-.393.38 0 .738.037 1.045.098.307.074.59.148.824.246.233.098.43.197.578.295.16.099.27.197.344.258.086.074.172.172.234.283.061.11.098.234.098.357 0 .197-.074.393-.221.59a4.169 4.169 0 0 1-.492.553 6.007 6.007 0 0 0-.406-.368 2.98 2.98 0 0 0-.504-.332 2.892 2.892 0 0 0-.627-.234 3.06 3.06 0 0 0-.787-.098c-.505 0-.935.098-1.28.307a2.44 2.44 0 0 0-.823.8c-.21.331-.357.7-.443 1.118a6.395 6.395 0 0 0-.135 1.292c0 .467.05.91.135 1.34.086.43.246.8.468 1.131.22.332.504.59.86.787.357.197.787.296 1.316.296.283 0 .529-.037.762-.099.234-.074.443-.16.615-.258.185-.099.332-.21.468-.308.135-.11.246-.209.332-.282.061.073.123.16.209.258s.16.209.221.307c.074.111.123.222.185.332a.697.697 0 0 1 0 .627c-.05.087-.136.185-.234.296Zm7.673-1.144c0 .787.111 1.365.345 1.722a2.285 2.285 0 0 1-.504.147c-.16.025-.32.05-.492.05-.357 0-.627-.074-.812-.21a.946.946 0 0 1-.356-.602c-.222.233-.505.43-.874.59-.356.16-.799.234-1.315.234-.271 0-.541-.037-.812-.111a2.083 2.083 0 0 1-.738-.369 1.996 1.996 0 0 1-.541-.676c-.135-.283-.21-.627-.21-1.033 0-.504.124-.922.37-1.242.246-.32.553-.566.922-.75a4.359 4.359 0 0 1 1.193-.382c.43-.073.824-.11 1.18-.135.124-.012.234-.012.357-.012h.32v-.27c0-.382-.098-.652-.307-.825-.21-.16-.542-.246-.997-.246-.43 0-.811.074-1.143.21a8.064 8.064 0 0 0-.984.479 2.012 2.012 0 0 1-.332-.566c-.086-.209-.123-.356-.123-.455 0-.135.074-.27.234-.405.16-.136.369-.246.64-.357.27-.11.577-.185.934-.258a6.278 6.278 0 0 1 1.106-.099c.542 0 .997.05 1.366.16.368.11.676.283.91.504.233.234.405.517.504.861.098.345.147.75.147 1.205l.013 2.841Zm-1.918-1.734h-.209c-.074 0-.135 0-.209.012-.246.025-.492.05-.738.086a2.03 2.03 0 0 0-.652.21 1.454 1.454 0 0 0-.467.393c-.123.16-.184.369-.184.615 0 .283.073.516.233.713.16.197.43.295.812.295.184 0 .369-.024.541-.073.172-.05.32-.111.455-.197a1.35 1.35 0 0 0 .307-.259c.074-.098.111-.184.111-.258V25.27Zm5.645-2.951c.16-.185.405-.382.75-.578.344-.197.762-.295 1.279-.295.369 0 .725.061 1.057.184.332.123.627.332.886.603.258.282.467.651.615 1.106.16.455.233 1.021.233 1.697 0 .775-.086 1.427-.27 1.931-.185.504-.406.91-.689 1.193a2.453 2.453 0 0 1-.947.627c-.344.123-.7.185-1.045.185-.283 0-.541-.037-.75-.099a2.48 2.48 0 0 1-.541-.221 1.666 1.666 0 0 1-.345-.234c-.073-.074-.135-.135-.147-.16v3.69h-2.042V21.666a.744.744 0 0 1 .185-.025c.061-.012.135-.012.209-.024.086 0 .172-.013.283-.013.332 0 .615.05.848.16.222.111.37.296.43.554ZM52 25.085c0-.296-.025-.578-.074-.837a2.202 2.202 0 0 0-.246-.676 1.247 1.247 0 0 0-.467-.443c-.197-.11-.43-.16-.713-.16-.418 0-.713.086-.873.234-.16.16-.246.332-.246.529v3.185c.074.086.221.172.43.283.21.11.443.16.713.16.505 0 .873-.197 1.12-.603.233-.393.356-.947.356-1.672Zm3.69 2.582a2.585 2.585 0 0 1-.136-.627c-.025-.221-.025-.443-.025-.664v-6.948c.074-.012.148-.025.222-.025.074-.012.147-.012.221-.024.074 0 .16-.013.234-.013.16 0 .32.013.48.05.16.024.307.086.43.184.135.086.233.209.32.369.073.16.123.357.123.602v1.07h2.102v1.513h-2.09v3.197c0 .701.283 1.046.848 1.046.136 0 .27-.025.394-.062.123-.05.233-.098.332-.148.098-.049.184-.11.258-.172.074-.061.123-.11.16-.135.148.221.27.406.344.566.074.16.123.307.123.455 0 .135-.049.258-.16.38-.11.124-.258.247-.442.345a2.37 2.37 0 0 1-.689.258c-.27.062-.566.099-.885.099-.615 0-1.107-.123-1.451-.357a2.218 2.218 0 0 1-.714-.959Zm9.136-.197c.247 0 .468-.024.664-.086.185-.049.357-.123.517-.197a2.41 2.41 0 0 0 .393-.258l.295-.258c.124.148.247.344.382.578.135.234.196.43.196.578 0 .221-.123.418-.368.602-.21.16-.505.296-.898.419-.381.11-.836.172-1.353.172-.467 0-.934-.062-1.39-.185a3.186 3.186 0 0 1-1.217-.627c-.357-.295-.64-.7-.86-1.205-.222-.504-.333-1.144-.333-1.906 0-.627.099-1.168.295-1.623.197-.455.456-.837.775-1.132.32-.295.69-.516 1.107-.664a3.95 3.95 0 0 1 1.254-.209c.553 0 1.034.086 1.427.258.393.173.7.406.947.701.246.296.417.627.528 1.009.11.381.16.774.16 1.193v.209c0 .086 0 .16-.012.258 0 .086-.012.172-.012.258a.758.758 0 0 1-.025.197h-4.415c.037.553.21 1.008.517 1.377.295.357.774.541 1.426.541Zm.689-3.037c0-.48-.098-.873-.283-1.168-.184-.296-.516-.455-.996-.455-.418 0-.738.147-.984.43-.246.283-.369.676-.369 1.193h2.632Zm5.386-2.078c.062-.087.136-.185.234-.296.098-.11.221-.209.369-.295.147-.086.307-.16.48-.221a1.66 1.66 0 0 1 .565-.086c.123 0 .246.012.381.024.136.025.259.062.37.111a.71.71 0 0 1 .282.222.55.55 0 0 1 .11.344c0 .221-.048.467-.159.75a5.894 5.894 0 0 1-.332.726 2.634 2.634 0 0 0-.504-.32 1.506 1.506 0 0 0-.603-.11c-.307 0-.566.085-.775.27-.209.184-.32.393-.32.651v4.846h-2.04v-7.317a.747.747 0 0 1 .184-.025c.061-.012.135-.012.209-.025.073 0 .172-.012.283-.012.32 0 .602.062.836.185.221.135.369.32.43.578Zm5.792 0c.062-.087.136-.185.234-.296.098-.11.221-.209.369-.295.147-.086.307-.16.48-.221.172-.061.356-.086.566-.086.122 0 .245.012.38.024.136.025.259.062.37.111.11.05.208.123.282.222a.55.55 0 0 1 .111.344c0 .221-.05.467-.16.75s-.222.529-.332.726a2.618 2.618 0 0 0-.504-.32 1.502 1.502 0 0 0-.603-.11c-.307 0-.566.085-.774.27-.21.184-.32.393-.32.651v4.846H74.75v-7.317a.742.742 0 0 1 .184-.025c.061-.012.135-.012.21-.025.073 0 .171-.012.282-.012.32 0 .602.062.836.185.221.135.37.32.43.578Zm9.727 4.648c0 .787.111 1.365.345 1.722a2.282 2.282 0 0 1-.504.147c-.16.025-.32.05-.492.05-.357 0-.627-.074-.812-.21a.946.946 0 0 1-.356-.602c-.222.233-.504.43-.873.59-.357.16-.8.234-1.316.234-.27 0-.541-.037-.812-.111a2.083 2.083 0 0 1-.738-.369 1.995 1.995 0 0 1-.541-.676c-.135-.283-.209-.627-.209-1.033 0-.504.123-.922.37-1.242.245-.32.552-.566.921-.75a4.36 4.36 0 0 1 1.193-.382c.43-.073.824-.11 1.18-.135.124-.012.234-.012.357-.012h.32v-.27c0-.382-.098-.652-.308-.825-.209-.16-.54-.246-.996-.246-.43 0-.81.074-1.143.21a8.045 8.045 0 0 0-.984.479 2.006 2.006 0 0 1-.332-.566c-.086-.209-.123-.356-.123-.455 0-.135.074-.27.234-.405.16-.136.369-.246.639-.357.27-.11.578-.185.935-.258a6.282 6.282 0 0 1 1.107-.099c.54 0 .996.05 1.365.16s.676.283.91.504c.233.234.405.517.504.861.098.345.148.75.148 1.205l.011 2.841Zm-1.918-1.734h-.21c-.073 0-.134 0-.208.012-.246.025-.492.05-.738.086-.246.037-.467.111-.651.21a1.457 1.457 0 0 0-.468.393c-.123.16-.184.369-.184.615 0 .283.074.516.233.713.16.197.43.295.812.295.184 0 .37-.024.541-.073.172-.05.32-.111.455-.197.135-.086.233-.172.307-.259.074-.098.111-.184.111-.258V25.27Z"/><path stroke="#fff" stroke-width=".595" d="M18.484 59.36C9.486 44.73 6.87 28.496 10.542 7.761h79.707c3.672 20.735 1.056 36.969-7.942 51.597-9.313 14.327-23.904 25.29-31.912 28.93-8.007-3.64-22.598-14.603-31.91-28.93Z"/><path fill="#68C5ED" d="M2 39.485h96.79l-5.35 17.123H7.35L2 39.485Z"/><path fill="#002E47" d="M10.348 44.95h2.31c.9 0 1.567.135 2.002.403.438.266.656.681.656 1.246 0 .371-.095.688-.285.95-.19.264-.44.432-.752.508v.045c.411.109.709.29.893.544.184.253.276.582.276.987 0 .6-.227 1.075-.68 1.422-.45.344-1.064.516-1.843.516h-2.577v-6.62Zm1.79 2.54h.538c.257 0 .455-.052.594-.158.141-.105.212-.262.212-.47 0-.372-.28-.558-.842-.558h-.503v1.187Zm0 1.31v1.39h.629c.558 0 .838-.235.838-.706 0-.22-.076-.39-.227-.508-.148-.117-.364-.176-.647-.176h-.594Zm8.391 2.771H16.6v-6.62h3.93v1.435h-2.142v1.041h1.983v1.436h-1.983v1.25h2.142v1.458Zm5.489-2.01c0 .41-.104.776-.313 1.096a2.067 2.067 0 0 1-.9.742c-.393.175-.854.263-1.382.263-.44 0-.81-.03-1.11-.09a4.205 4.205 0 0 1-.932-.327v-1.594c.34.175.695.313 1.064.412.368.097.706.145 1.014.145.266 0 .46-.045.584-.136a.43.43 0 0 0 .186-.358c0-.09-.026-.169-.077-.235a.81.81 0 0 0-.24-.208c-.109-.07-.401-.212-.878-.426-.432-.196-.757-.386-.974-.57a1.787 1.787 0 0 1-.48-.635 2.133 2.133 0 0 1-.154-.846c0-.61.222-1.086.666-1.427.443-.341 1.053-.512 1.83-.512.684 0 1.383.159 2.096.476l-.548 1.381c-.619-.284-1.153-.426-1.603-.426-.233 0-.402.041-.508.123a.37.37 0 0 0-.158.303c0 .13.066.246.2.349.135.102.5.29 1.095.561.57.257.966.533 1.187.829.223.293.335.663.335 1.11Zm3.944 2.01h-1.788v-5.158h-1.617V44.95h5.018v1.463h-1.613v5.158Zm8.9 0H34.93v-6.62h3.931v1.435H36.72v1.041h1.984v1.436h-1.984v1.25h2.142v1.458Zm5.22 0-.325-1.24h-2.151l-.335 1.24h-1.966l2.16-6.648h2.387l2.187 6.648h-1.956Zm-.697-2.708-.285-1.087a46.868 46.868 0 0 1-.244-.937 16.238 16.238 0 0 1-.186-.824c-.027.154-.082.407-.163.76-.079.354-.255 1.05-.53 2.088h1.408Zm7.704.698c0 .41-.104.776-.313 1.096a2.066 2.066 0 0 1-.9.742c-.393.175-.854.263-1.382.263-.44 0-.81-.03-1.11-.09a4.205 4.205 0 0 1-.933-.327v-1.594c.341.175.696.313 1.065.412.368.097.706.145 1.014.145.266 0 .46-.045.584-.136a.43.43 0 0 0 .186-.358c0-.09-.026-.169-.077-.235a.81.81 0 0 0-.24-.208c-.109-.07-.402-.212-.879-.426-.431-.196-.756-.386-.973-.57a1.788 1.788 0 0 1-.48-.635 2.133 2.133 0 0 1-.154-.846c0-.61.222-1.086.665-1.427.444-.341 1.054-.512 1.83-.512.685 0 1.384.159 2.097.476l-.548 1.381c-.62-.284-1.153-.426-1.603-.426-.233 0-.402.041-.508.123a.37.37 0 0 0-.158.303c0 .13.066.246.2.349.135.102.5.29 1.095.561.57.257.966.533 1.187.829.223.293.335.663.335 1.11Zm4.954 2.01h-3.93v-6.62h3.93v1.435h-2.142v1.041h1.984v1.436H53.9v1.25h2.142v1.458Zm9.764-3.32c0 1.115-.273 1.962-.82 2.541-.546.58-1.346.87-2.4.87-1.038 0-1.836-.291-2.39-.874-.553-.583-.83-1.431-.83-2.545 0-1.102.275-1.943.825-2.523.552-.582 1.354-.874 2.404-.874 1.054 0 1.853.289 2.396.865.543.577.815 1.424.815 2.54Zm-4.556 0c0 1.28.445 1.92 1.336 1.92.453 0 .788-.155 1.005-.465.221-.312.331-.796.331-1.454 0-.661-.112-1.149-.335-1.463-.22-.317-.551-.476-.992-.476-.897 0-1.345.647-1.345 1.939Zm7.513 3.32h-1.761v-6.62h3.912v1.435h-2.15v1.263h1.983v1.436h-1.984v2.486Zm11.277-6.62v3.985c0 .866-.246 1.538-.738 2.015-.49.474-1.196.71-2.12.71-.902 0-1.597-.23-2.083-.692-.483-.462-.724-1.126-.724-1.993V44.95h1.797v3.886c0 .468.088.808.263 1.019.175.211.433.317.775.317.365 0 .629-.104.792-.313.166-.21.25-.555.25-1.032V44.95h1.788Zm5.72 4.61c0 .41-.105.776-.313 1.096a2.066 2.066 0 0 1-.901.742c-.393.175-.853.263-1.381.263-.441 0-.811-.03-1.11-.09a4.204 4.204 0 0 1-.933-.327v-1.594c.342.175.696.313 1.065.412.368.097.706.145 1.014.145.265 0 .46-.045.584-.136a.431.431 0 0 0 .186-.358c0-.09-.026-.169-.077-.235a.807.807 0 0 0-.24-.208c-.109-.07-.402-.212-.879-.426-.432-.196-.756-.386-.974-.57a1.788 1.788 0 0 1-.48-.635 2.132 2.132 0 0 1-.154-.846c0-.61.222-1.086.666-1.427.444-.341 1.054-.512 1.83-.512.685 0 1.384.159 2.097.476l-.548 1.381c-.62-.284-1.153-.426-1.603-.426-.233 0-.402.041-.508.123a.37.37 0 0 0-.158.303c0 .13.066.246.199.349.136.102.501.29 1.096.561.57.257.966.533 1.186.829.224.293.336.663.336 1.11Zm4.954 2.01h-3.93v-6.62h3.93v1.435h-2.142v1.041h1.983v1.436h-1.983v1.25h2.142v1.458Z"/><path fill="#fff" d="M43.862 71.315h-5.606v-1.374l1.886-1.907c.391-.409.694-.736.909-.983a3.24 3.24 0 0 0 .46-.629 1.17 1.17 0 0 0 .132-.538c0-.229-.074-.395-.222-.497a.898.898 0 0 0-.523-.153c-.243 0-.49.07-.74.211a5.219 5.219 0 0 0-.84.613l-1.147-1.342c.233-.208.48-.405.74-.592a3.4 3.4 0 0 1 .925-.465c.355-.12.789-.179 1.3-.179.524 0 .979.091 1.363.274.387.184.686.435.898.756.211.317.317.678.317 1.083 0 .447-.083.847-.249 1.2a4.112 4.112 0 0 1-.734 1.05c-.328.35-.736.746-1.226 1.19l-.565.507v.053h2.922v1.722Zm6.372-3.852c0 .62-.05 1.175-.148 1.665-.099.486-.258.9-.476 1.241-.215.342-.5.603-.856.783-.356.179-.792.269-1.31.269-.645 0-1.173-.157-1.585-.47-.412-.317-.717-.77-.914-1.358-.194-.592-.29-1.302-.29-2.13 0-.834.087-1.548.263-2.14.18-.594.474-1.051.883-1.368.408-.317.956-.475 1.643-.475.645 0 1.171.158 1.58.475.412.314.716.768.914 1.363.197.592.296 1.307.296 2.145Zm-3.503 0c0 .504.017.927.052 1.268.04.342.11.599.212.772.105.169.255.254.449.254a.489.489 0 0 0 .444-.254c.102-.173.172-.428.211-.766.039-.342.058-.767.058-1.274 0-.51-.02-.936-.058-1.278-.039-.342-.11-.599-.211-.772a.486.486 0 0 0-.444-.264.498.498 0 0 0-.45.264c-.101.173-.172.43-.21.772-.036.342-.053.768-.053 1.278Zm9.811 3.852h-5.606v-1.374l1.886-1.907c.392-.409.694-.736.91-.983a3.24 3.24 0 0 0 .459-.629 1.17 1.17 0 0 0 .132-.538c0-.229-.074-.395-.222-.497a.898.898 0 0 0-.523-.153c-.243 0-.49.07-.74.211a5.219 5.219 0 0 0-.84.613l-1.146-1.342c.232-.208.479-.405.74-.592a3.4 3.4 0 0 1 .924-.465c.356-.12.79-.179 1.3-.179.525 0 .979.091 1.363.274.387.184.687.435.898.756.212.317.317.678.317 1.083 0 .447-.083.847-.248 1.2a4.112 4.112 0 0 1-.735 1.05c-.327.35-.736.746-1.225 1.19l-.566.507v.053h2.922v1.722Zm6.34 0h-5.605v-1.374l1.886-1.907c.39-.409.694-.736.909-.983a3.24 3.24 0 0 0 .46-.629 1.17 1.17 0 0 0 .131-.538c0-.229-.074-.395-.222-.497a.898.898 0 0 0-.523-.153c-.243 0-.49.07-.74.211a5.219 5.219 0 0 0-.84.613l-1.146-1.342c.232-.208.479-.405.74-.592a3.4 3.4 0 0 1 .924-.465c.356-.12.79-.179 1.3-.179.525 0 .98.091 1.363.274.388.184.687.435.898.756.212.317.317.678.317 1.083 0 .447-.082.847-.248 1.2a4.112 4.112 0 0 1-.734 1.05c-.328.35-.736.746-1.226 1.19l-.566.507v.053h2.922v1.722Z"/></svg>