<svg width="192" height="184" viewBox="0 0 192 184" fill="none" xmlns="http://www.w3.org/2000/svg">
<path d="M159.617 26.5H32.7739C32.1007 26.5 31.4727 26.8387 31.1028 27.4012L8.52519 61.738C8.03414 62.4848 8.09821 63.4668 8.68214 64.1435L92.0971 160.807C92.477 161.247 93.0297 161.5 93.6112 161.5H98.7796C99.3611 161.5 99.9138 161.247 100.294 160.807L183.709 64.1435C184.293 63.4668 184.357 62.4848 183.866 61.738L161.288 27.4012C160.918 26.8387 160.29 26.5 159.617 26.5Z" fill="#444A51"/>
<path fill-rule="evenodd" clip-rule="evenodd" d="M160.272 21H32.1188C30.133 21 28.2759 21.9825 27.1586 23.6241L3.03986 59.0617C1.51358 61.3042 1.6818 64.2919 3.45016 66.3489L88.1807 164.911C89.3206 166.237 90.9821 167 92.7306 167H99.6598C101.408 167 103.07 166.237 104.21 164.911L188.94 66.3489C190.709 64.2919 190.877 61.3042 189.351 59.0617L165.232 23.6241C164.114 21.9825 162.257 21 160.272 21ZM32.1188 20H160.272C162.588 20 164.755 21.1462 166.058 23.0615L190.177 58.499C191.958 61.1153 191.762 64.6009 189.699 67.0008L104.968 165.563C103.638 167.11 101.7 168 99.6598 168H92.7306C90.6907 168 88.7522 167.11 87.4224 165.563L2.69185 67.0008C0.628761 64.6009 0.432507 61.1153 2.21316 58.499L26.3319 23.0615C27.6354 21.1462 29.8021 20 32.1188 20Z" fill="#444A51"/>
<path d="M63.9942 55.6775L55.5166 47.2015C55.3799 47.073 55.1993 47.0015 55.0117 47.0015C54.824 47.0015 54.6435 47.073 54.5067 47.2015L52.8413 48.867L59.6526 55.6783C59.7192 55.7444 59.7721 55.8231 59.8083 55.9097C59.8444 55.9964 59.863 56.0894 59.863 56.1832C59.863 56.2771 59.8444 56.3701 59.8083 56.4568C59.7721 56.5434 59.7192 56.6221 59.6526 56.6882L52.6494 63.6913L54.3149 65.3568C54.4516 65.4853 54.6322 65.5569 54.8198 65.5569C55.0075 65.5569 55.1881 65.4853 55.3248 65.3568L63.995 56.6882C64.1236 56.5515 64.1951 56.3709 64.1951 56.1832C64.1951 55.9956 64.1236 55.815 63.995 55.6783L63.9942 55.6775Z" fill="#009C9C"/>
<path d="M49.5516 47.8157L48.9352 47.2001C48.7985 47.0716 48.6179 47 48.4303 47C48.2427 47 48.0621 47.0716 47.9253 47.2001L46.2599 48.8664L47.3653 49.9726L49.5361 52.1434L51.7037 49.9718L49.5508 47.8165L49.5516 47.8157ZM49.3443 60.4104L47.1775 62.582L46.0713 63.6874L47.7368 65.3529C47.8735 65.4817 48.0543 65.5534 48.2421 65.5534C48.43 65.5534 48.6107 65.4817 48.7475 65.3529L49.3598 64.7373L51.5298 62.5665L49.3443 60.4104Z" fill="#40E3E3"/>
<path d="M53.0726 55.6782C53.2011 55.8149 53.2727 55.9955 53.2727 56.1831C53.2727 56.3707 53.2011 56.5513 53.0726 56.688L49.3457 60.4109L51.5173 62.5825L57.4143 56.6848C57.4809 56.6187 57.5338 56.54 57.57 56.4533C57.6061 56.3667 57.6247 56.2737 57.6247 56.1798C57.6247 56.0859 57.6061 55.993 57.57 55.9063C57.5338 55.8196 57.4809 55.741 57.4143 55.6749L51.7239 49.9878L49.5523 52.1586L53.0726 55.6782Z" fill="#1ABAB8"/>
<path d="M39.2462 55.8803L45.1431 49.9834L42.9723 47.8117L42.3535 47.2011C42.2168 47.0725 42.0362 47.001 41.8485 47.001C41.6609 47.001 41.4803 47.0725 41.3436 47.2011L32.6668 55.8803C32.6 55.9463 32.547 56.025 32.5109 56.1116C32.4747 56.1983 32.4561 56.2913 32.4561 56.3852C32.4561 56.4791 32.4747 56.5721 32.5109 56.6588C32.547 56.7455 32.6 56.8241 32.6668 56.8902L41.1444 65.3669C41.2811 65.4955 41.4617 65.567 41.6493 65.567C41.837 65.567 42.0176 65.4955 42.1543 65.3669L42.7772 64.7514L44.9488 62.5805L39.2462 56.8902C39.1797 56.824 39.1268 56.7453 39.0908 56.6587C39.0547 56.572 39.0362 56.4791 39.0362 56.3852C39.0362 56.2914 39.0547 56.1984 39.0908 56.1118C39.1268 56.0251 39.1797 55.9464 39.2462 55.8803Z" fill="#87F0F0"/>
<path d="M45.8259 55.8811L48.4319 53.2792L46.2602 51.1083L45.1548 50.0029L39.2579 55.8998C39.1913 55.966 39.1385 56.0447 39.1025 56.1313C39.0664 56.218 39.0479 56.3109 39.0479 56.4048C39.0479 56.4986 39.0664 56.5916 39.1025 56.6782C39.1385 56.7649 39.1913 56.8436 39.2579 56.9097L44.9377 62.5821L46.0431 61.4767L48.2147 59.3051L45.8112 56.9065C45.6827 56.7697 45.6111 56.5892 45.6111 56.4015C45.6111 56.2139 45.6827 56.0333 45.8112 55.8966" fill="#40E3E3"/>
<path d="M45.8255 56.8914L48.2282 59.29L50.8309 56.6881C50.8974 56.622 50.9503 56.5433 50.9863 56.4566C51.0224 56.37 51.0409 56.277 51.0409 56.1832C51.0409 56.0893 51.0224 55.9964 50.9863 55.9097C50.9503 55.8231 50.8974 55.7444 50.8309 55.6782L48.4306 53.2788L45.8255 55.8807C45.6967 56.0175 45.625 56.1982 45.625 56.3861C45.625 56.5739 45.6967 56.7546 45.8255 56.8914Z" fill="#17CFCF"/>
<path d="M68.2411 54.1646C68.2648 53.2363 68.4497 52.319 68.7871 51.4539C69.1032 50.6565 69.5903 49.9381 70.2139 49.3491C70.881 48.7408 71.6667 48.2771 72.5217 47.9871C73.5567 47.6473 74.643 47.4838 75.7325 47.5051C76.9453 47.4656 78.1557 47.6552 79.2997 48.0613C80.1199 48.3641 80.8761 48.8178 81.5293 49.3989C82.029 49.8442 82.4257 50.3932 82.6915 51.0075C82.8842 51.4554 83.0114 51.9287 83.0699 52.4138C83.0801 52.503 83.0685 52.5934 83.0362 52.6772C83.0039 52.761 82.9517 52.8357 82.8842 52.895C82.7516 53.0155 82.5784 53.0818 82.3991 53.0806H80.3947C80.2382 53.0878 80.0841 53.0397 79.9594 52.9447C79.8628 52.867 79.7836 52.7699 79.7271 52.6595C79.6432 52.5127 79.5562 52.3675 79.4664 52.2242C79.2828 51.9581 79.0564 51.7242 78.7964 51.5321C78.4307 51.2602 78.0268 51.0438 77.5979 50.8898C77.001 50.6824 76.3712 50.586 75.7397 50.6053C74.6581 50.5514 73.5963 50.9094 72.7682 51.6071C72.3951 51.9483 72.0968 52.3632 71.8922 52.8256C71.6877 53.288 71.5814 53.7878 71.58 54.2934C71.5444 54.9656 71.5278 55.6388 71.5302 56.312C71.5302 57.0286 71.5302 57.7025 71.58 58.3306C71.6266 59.7006 72.0263 60.6953 72.7682 61.3123C73.6143 61.9648 74.6655 62.2937 75.7325 62.2399C76.2997 62.2442 76.8651 62.1771 77.4154 62.04C77.8973 61.9223 78.3485 61.7034 78.7395 61.3984C79.1227 61.0848 79.4206 60.6795 79.6062 60.2212C79.8275 59.6524 79.9325 59.0464 79.9167 58.4373V58.2271H76.8955C76.8074 58.2285 76.72 58.2114 76.6389 58.177C76.5578 58.1426 76.4848 58.0916 76.4246 58.0272C76.3617 57.967 76.3117 57.8945 76.2779 57.8141C76.2441 57.7338 76.2271 57.6474 76.2279 57.5603V55.8008C76.2298 55.624 76.3006 55.455 76.4253 55.3297C76.55 55.2043 76.7188 55.1327 76.8955 55.1301H82.6022C82.7791 55.1327 82.9479 55.2045 83.0727 55.3299C83.1974 55.4554 83.2682 55.6247 83.2698 55.8016V58.5226C83.2801 59.4556 83.1205 60.3827 82.7989 61.2586C82.4898 62.0698 82.0022 62.801 81.372 63.3981C80.6973 64.0353 79.8948 64.5217 79.0176 64.825C76.8821 65.4934 74.5933 65.4934 72.4577 64.825C71.6057 64.5432 70.8245 64.081 70.1673 63.47C69.551 62.8665 69.0737 62.1358 68.7689 61.3289C68.4376 60.4539 68.2567 59.5291 68.234 58.5937C68.234 58.28 68.2056 57.934 68.1985 57.5556C68.1914 57.1779 68.1985 56.7852 68.1985 56.3894V55.2264C68.1985 54.8448 68.2198 54.513 68.234 54.1851M90.8963 54.9349C90.4771 54.9231 90.0598 54.9949 89.6685 55.1459C89.3525 55.2707 89.0633 55.454 88.8161 55.6878C88.5923 55.9001 88.4107 56.1529 88.2812 56.4329C88.1668 56.6797 88.0888 56.9418 88.0497 57.2111H93.6426C93.6068 56.9461 93.5446 56.6854 93.4569 56.4329C93.3642 56.1549 93.2119 55.9006 93.0105 55.6878C92.7814 55.45 92.5025 55.2652 92.1944 55.1459C91.7795 54.991 91.3389 54.9193 90.8963 54.9349ZM84.8317 58.6482C84.8254 57.7602 84.9676 56.8785 85.2529 56.037C85.5122 55.2507 85.9243 54.5233 86.4656 53.8968C86.9983 53.2922 87.6521 52.8063 88.3847 52.4707C89.1697 52.1198 90.0215 51.9432 90.8813 51.9532C91.7401 51.9422 92.5913 52.1149 93.3779 52.4596C94.1152 52.7807 94.7782 53.2506 95.3254 53.8399C95.8619 54.4211 96.2788 55.1021 96.5524 55.8443C96.8431 56.6162 96.9909 57.4347 96.9877 58.2595V59.3727C96.9849 59.5496 96.9132 59.7185 96.788 59.8436C96.6628 59.9686 96.4939 60.04 96.3169 60.0427H88.0489C88.041 60.3911 88.12 60.7364 88.2812 61.0453C88.4392 61.3258 88.6557 61.5691 88.9164 61.7587C89.1905 61.9618 89.5002 62.1127 89.8289 62.2043C90.1775 62.3013 90.5376 62.3505 90.8995 62.3505C91.334 62.3631 91.7685 62.3086 92.1873 62.1901C92.4796 62.1016 92.7561 61.9641 93.0034 61.7832C93.1425 61.6765 93.2918 61.5849 93.4498 61.509C93.5999 61.453 93.7603 61.4269 93.9207 61.434H95.8998C96.0815 61.4364 96.2553 61.5083 96.3849 61.6339C96.4507 61.6922 96.5019 61.7653 96.5341 61.8471C96.5664 61.9289 96.5789 62.0172 96.5706 62.1048C96.515 62.4282 96.3831 62.7337 96.1858 62.996C95.8958 63.4147 95.5332 63.7765 95.1153 64.0665C94.5669 64.448 93.9663 64.7485 93.3321 64.9585C92.545 65.2148 91.7199 65.3351 90.8923 65.314C90.0363 65.3239 89.187 65.1605 88.3957 64.8336C87.658 64.5284 86.9973 64.0629 86.4617 63.4708C85.9212 62.8518 85.5092 62.1315 85.2497 61.3518C84.9593 60.478 84.8169 59.5618 84.8286 58.6411M102.917 60.4314C102.893 60.877 103.04 61.3139 103.327 61.6552C103.598 61.9618 104.105 62.115 104.85 62.115H106.359C106.536 62.1171 106.705 62.1879 106.83 62.3124C106.955 62.4369 107.027 62.6053 107.029 62.7818V64.4157C107.027 64.5928 106.955 64.7619 106.83 64.8871C106.705 65.0123 106.536 65.0838 106.359 65.0865H104.526C102.972 65.0865 101.784 64.7104 100.959 63.959C100.134 63.2085 99.7174 62.0566 99.7103 60.5065V55.1814H98.0622C97.9747 55.1825 97.888 55.1653 97.8076 55.1308C97.7272 55.0964 97.6549 55.0455 97.5953 54.9815C97.5306 54.9223 97.4793 54.8499 97.4448 54.7692C97.4104 54.6886 97.3935 54.6015 97.3954 54.5138V52.8776C97.3944 52.7901 97.4117 52.7034 97.4461 52.623C97.4805 52.5426 97.5313 52.4703 97.5953 52.4106C97.6554 52.3473 97.7278 52.2969 97.8081 52.2625C97.8884 52.2281 97.9749 52.2105 98.0622 52.2108H99.6992V48.1735C99.7019 47.9973 99.7731 47.829 99.8977 47.7044C100.022 47.5797 100.191 47.5086 100.367 47.5059H102.25C102.426 47.5086 102.594 47.5796 102.718 47.7041C102.843 47.8286 102.914 47.9966 102.917 48.1727V52.21H106.127C106.298 52.2199 106.459 52.2943 106.578 52.4182C106.696 52.5421 106.763 52.7062 106.766 52.8776V54.5146C106.763 54.6907 106.692 54.8588 106.567 54.9835C106.443 55.1081 106.275 55.1793 106.099 55.1822H102.888L102.917 60.4322V60.4314ZM119.187 58.6229L116.461 51.5645L113.739 58.6229H119.187ZM117.824 47.7516C117.933 47.7438 118.041 47.7584 118.144 47.7946C118.246 47.8307 118.34 47.8877 118.42 47.9618C118.579 48.1467 118.7 48.3615 118.776 48.5938L124.841 64.2451C124.857 64.3004 124.865 64.358 124.865 64.4157C124.863 64.5927 124.791 64.7618 124.666 64.887C124.541 65.0123 124.372 65.0838 124.195 65.0865H122.411C122.287 65.0995 122.162 65.0876 122.042 65.0515C121.923 65.0154 121.812 64.9559 121.716 64.8763C121.599 64.7587 121.507 64.6191 121.445 64.4655L120.374 61.7192H112.552L111.481 64.4655C111.419 64.6191 111.327 64.7587 111.21 64.8763C111.115 64.956 111.004 65.0157 110.884 65.0518C110.765 65.0879 110.639 65.0997 110.515 65.0865H108.731C108.555 65.0826 108.387 65.0106 108.263 64.8855C108.138 64.7604 108.067 64.592 108.064 64.4157C108.063 64.3578 108.072 64.3001 108.09 64.2451L114.153 48.5938C114.229 48.3615 114.351 48.1467 114.511 47.9618C114.59 47.8873 114.684 47.8301 114.786 47.7939C114.889 47.7577 114.998 47.7433 115.106 47.7516H117.824ZM135.456 59.3403C135.506 58.8803 135.506 58.4162 135.456 57.9561C135.36 56.8864 135.028 56.1089 134.468 55.6412C133.892 55.1631 133.162 54.9096 132.414 54.9278C131.667 54.9041 130.939 55.1584 130.37 55.6412C130.083 55.9037 129.851 56.2204 129.688 56.573C129.524 56.9256 129.432 57.307 129.417 57.6954C129.379 58.0078 129.362 58.3225 129.367 58.6372C129.362 58.9524 129.379 59.2668 129.417 59.5789C129.46 60.3532 129.802 61.0808 130.37 61.6094C130.931 62.1071 131.662 62.3726 132.414 62.3505C133.162 62.3686 133.892 62.1152 134.468 61.637C135.028 61.1701 135.36 60.3966 135.456 59.3221V59.3403ZM133.162 65.333C132.701 65.3377 132.24 65.2884 131.789 65.186C131.421 65.1039 131.063 64.9845 130.719 64.8297C130.445 64.692 130.188 64.5246 129.952 64.3304C129.767 64.1839 129.594 64.0228 129.435 63.8484V69.1206C129.432 69.2976 129.361 69.4665 129.235 69.5917C129.11 69.7169 128.941 69.7885 128.764 69.7913H126.885C126.707 69.7891 126.538 69.7177 126.413 69.5924C126.287 69.4671 126.216 69.2978 126.214 69.1206V52.8776C126.218 52.7014 126.29 52.5336 126.415 52.4094C126.54 52.2851 126.708 52.214 126.885 52.2108H128.764C128.941 52.2136 129.109 52.2846 129.234 52.4089C129.359 52.5333 129.431 52.7013 129.435 52.8776V53.4488C129.8 53.0446 130.241 52.7163 130.733 52.4825C131.077 52.3274 131.436 52.2077 131.804 52.1254C132.254 52.0232 132.715 51.9742 133.177 51.9793C133.95 51.968 134.716 52.1325 135.417 52.4604C136.068 52.7685 136.649 53.207 137.125 53.7482C137.603 54.2973 137.981 54.9263 138.242 55.6065C138.513 56.3065 138.668 57.046 138.698 57.7965C138.716 58.0422 138.723 58.3314 138.723 58.6632C138.723 58.9951 138.723 59.2842 138.698 59.5299C138.667 60.2801 138.513 61.02 138.242 61.72C137.981 62.4001 137.603 63.0291 137.125 63.5782C136.649 64.1193 136.068 64.5576 135.417 64.866C134.711 65.1911 133.94 65.3508 133.162 65.333ZM149.453 59.3403C149.503 58.8803 149.503 58.4162 149.453 57.9561C149.353 56.8864 149.025 56.1089 148.461 55.6412C147.886 55.1619 147.156 54.9083 146.407 54.9278C145.661 54.9042 144.933 55.1584 144.363 55.6412C144.077 55.9037 143.845 56.2204 143.681 56.573C143.518 56.9256 143.426 57.307 143.41 57.6954C143.375 58.008 143.358 58.3225 143.361 58.6372C143.358 58.9524 143.374 59.2668 143.41 59.5789C143.454 60.3532 143.795 61.0808 144.363 61.6094C144.925 62.1077 145.656 62.3728 146.407 62.3505C147.156 62.3698 147.886 62.1163 148.461 61.637C149.025 61.1701 149.353 60.3966 149.453 59.3221V59.3403ZM147.149 65.3148C146.687 65.3197 146.226 65.2706 145.776 65.1686C145.408 65.0858 145.049 64.9661 144.705 64.8115C144.429 64.6795 144.168 64.5167 143.928 64.3264C143.742 64.1798 143.568 64.0186 143.407 63.8445V69.1206C143.408 69.2085 143.39 69.2956 143.356 69.3766C143.321 69.4575 143.271 69.5306 143.207 69.5914C143.147 69.6547 143.075 69.7051 142.995 69.7395C142.914 69.7739 142.828 69.7915 142.74 69.7913H140.857C140.68 69.7884 140.512 69.7167 140.387 69.5914C140.263 69.4662 140.192 69.2972 140.19 69.1206V52.8776C140.192 52.7014 140.263 52.5329 140.388 52.4083C140.512 52.2837 140.681 52.2128 140.857 52.2108H142.74C142.916 52.215 143.083 52.2866 143.207 52.4107C143.331 52.5349 143.403 52.702 143.407 52.8776V53.4488C143.568 53.275 143.742 53.113 143.928 52.9668C144.168 52.7772 144.429 52.6137 144.705 52.4817C145.049 52.3274 145.408 52.208 145.776 52.1254C146.226 52.0234 146.687 51.9744 147.149 51.9793C147.924 51.968 148.691 52.1325 149.393 52.4604C150.043 52.7704 150.624 53.2084 151.101 53.7482C151.578 54.2975 151.955 54.9265 152.214 55.6065C152.486 56.3065 152.64 57.046 152.671 57.7965C152.688 58.0422 152.695 58.3314 152.695 58.6632C152.695 58.9951 152.695 59.2842 152.671 59.5299C152.64 60.2801 152.486 61.0201 152.214 61.72C151.955 62.3999 151.578 63.0289 151.101 63.5782C150.624 64.118 150.043 64.5561 149.393 64.866C148.691 65.1942 147.924 65.359 147.149 65.348" fill="white"/>
<path d="M80.5634 125.5C80.4674 125.5 80.3858 125.466 80.3186 125.399C80.2514 125.332 80.2178 125.25 80.2178 125.154V124.42C80.2178 124.333 80.237 124.233 80.2754 124.117C80.3234 123.993 80.4242 123.868 80.5778 123.743L82.853 121.482C83.4866 120.983 83.9954 120.561 84.3794 120.215C84.773 119.86 85.0562 119.538 85.229 119.25C85.4114 118.953 85.5026 118.66 85.5026 118.372C85.5026 117.94 85.3826 117.589 85.1426 117.321C84.9122 117.052 84.5426 116.917 84.0338 116.917C83.6978 116.917 83.4146 116.989 83.1842 117.133C82.9538 117.268 82.7714 117.45 82.637 117.681C82.5122 117.911 82.4258 118.165 82.3778 118.444C82.3586 118.569 82.3058 118.655 82.2194 118.703C82.133 118.751 82.0466 118.775 81.9602 118.775H80.6786C80.5922 118.775 80.5202 118.746 80.4626 118.689C80.405 118.631 80.3762 118.564 80.3762 118.487C80.3858 118.074 80.4722 117.676 80.6354 117.292C80.7986 116.898 81.0338 116.553 81.341 116.255C81.6578 115.948 82.0418 115.703 82.493 115.521C82.9442 115.338 83.453 115.247 84.0194 115.247C84.8162 115.247 85.4738 115.381 85.9922 115.65C86.5202 115.919 86.9138 116.284 87.173 116.745C87.4418 117.205 87.5762 117.724 87.5762 118.3C87.5762 118.751 87.4898 119.169 87.317 119.553C87.1442 119.927 86.8946 120.292 86.5682 120.647C86.2418 120.993 85.8482 121.348 85.3874 121.713L83.3426 123.786H87.4466C87.5522 123.786 87.6338 123.82 87.6914 123.887C87.7586 123.945 87.7922 124.026 87.7922 124.132V125.154C87.7922 125.25 87.7586 125.332 87.6914 125.399C87.6338 125.466 87.5522 125.5 87.4466 125.5H80.5634Z" fill="#17CFCE"/>
<path d="M92.4886 125.644C91.807 125.644 91.2262 125.543 90.7462 125.341C90.2662 125.14 89.8726 124.861 89.5654 124.506C89.2582 124.151 89.0278 123.743 88.8742 123.282C88.7206 122.812 88.6294 122.313 88.6006 121.785C88.591 121.525 88.5814 121.242 88.5718 120.935C88.5718 120.618 88.5718 120.301 88.5718 119.985C88.5814 119.668 88.591 119.375 88.6006 119.106C88.6198 118.578 88.711 118.084 88.8742 117.623C89.0374 117.153 89.2726 116.745 89.5798 116.399C89.8966 116.053 90.295 115.78 90.775 115.578C91.255 115.377 91.8262 115.276 92.4886 115.276C93.1606 115.276 93.7366 115.377 94.2166 115.578C94.6966 115.78 95.0902 116.053 95.3974 116.399C95.7142 116.745 95.9494 117.153 96.103 117.623C96.2662 118.084 96.3574 118.578 96.3766 119.106C96.3958 119.375 96.4054 119.668 96.4054 119.985C96.4054 120.301 96.4054 120.618 96.4054 120.935C96.4054 121.242 96.3958 121.525 96.3766 121.785C96.3574 122.313 96.271 122.812 96.1174 123.282C95.9638 123.743 95.7334 124.151 95.4262 124.506C95.119 124.861 94.7206 125.14 94.231 125.341C93.751 125.543 93.1702 125.644 92.4886 125.644ZM92.4886 123.988C93.1126 123.988 93.5686 123.786 93.8566 123.383C94.1542 122.97 94.3078 122.413 94.3174 121.713C94.3366 121.434 94.3462 121.156 94.3462 120.877C94.3462 120.589 94.3462 120.301 94.3462 120.013C94.3462 119.725 94.3366 119.452 94.3174 119.193C94.3078 118.511 94.1542 117.964 93.8566 117.551C93.5686 117.129 93.1126 116.917 92.4886 116.917C91.8742 116.917 91.4182 117.129 91.1206 117.551C90.8326 117.964 90.679 118.511 90.6598 119.193C90.6598 119.452 90.655 119.725 90.6454 120.013C90.6454 120.301 90.6454 120.589 90.6454 120.877C90.655 121.156 90.6598 121.434 90.6598 121.713C90.679 122.413 90.8374 122.97 91.135 123.383C91.4326 123.786 91.8838 123.988 92.4886 123.988Z" fill="#17CFCE"/>
<path d="M97.5031 125.5C97.4071 125.5 97.3255 125.466 97.2583 125.399C97.1911 125.332 97.1575 125.25 97.1575 125.154V124.42C97.1575 124.333 97.1767 124.233 97.2151 124.117C97.2631 123.993 97.3639 123.868 97.5175 123.743L99.7927 121.482C100.426 120.983 100.935 120.561 101.319 120.215C101.713 119.86 101.996 119.538 102.169 119.25C102.351 118.953 102.442 118.66 102.442 118.372C102.442 117.94 102.322 117.589 102.082 117.321C101.852 117.052 101.482 116.917 100.973 116.917C100.637 116.917 100.354 116.989 100.124 117.133C99.8935 117.268 99.7111 117.45 99.5767 117.681C99.4519 117.911 99.3655 118.165 99.3175 118.444C99.2983 118.569 99.2455 118.655 99.1591 118.703C99.0727 118.751 98.9863 118.775 98.8999 118.775H97.6183C97.5319 118.775 97.4599 118.746 97.4023 118.689C97.3447 118.631 97.3159 118.564 97.3159 118.487C97.3255 118.074 97.4119 117.676 97.5751 117.292C97.7383 116.898 97.9735 116.553 98.2807 116.255C98.5975 115.948 98.9815 115.703 99.4327 115.521C99.8839 115.338 100.393 115.247 100.959 115.247C101.756 115.247 102.413 115.381 102.932 115.65C103.46 115.919 103.853 116.284 104.113 116.745C104.381 117.205 104.516 117.724 104.516 118.3C104.516 118.751 104.429 119.169 104.257 119.553C104.084 119.927 103.834 120.292 103.508 120.647C103.181 120.993 102.788 121.348 102.327 121.713L100.282 123.786H104.386C104.492 123.786 104.573 123.82 104.631 123.887C104.698 123.945 104.732 124.026 104.732 124.132V125.154C104.732 125.25 104.698 125.332 104.631 125.399C104.573 125.466 104.492 125.5 104.386 125.5H97.5031Z" fill="#17CFCE"/>
<path d="M105.699 125.5C105.603 125.5 105.521 125.466 105.454 125.399C105.387 125.332 105.353 125.25 105.353 125.154V124.42C105.353 124.333 105.372 124.233 105.411 124.117C105.459 123.993 105.559 123.868 105.713 123.743L107.988 121.482C108.622 120.983 109.131 120.561 109.515 120.215C109.908 119.86 110.191 119.538 110.364 119.25C110.547 118.953 110.638 118.66 110.638 118.372C110.638 117.94 110.518 117.589 110.278 117.321C110.047 117.052 109.678 116.917 109.169 116.917C108.833 116.917 108.55 116.989 108.319 117.133C108.089 117.268 107.907 117.45 107.772 117.681C107.647 117.911 107.561 118.165 107.513 118.444C107.494 118.569 107.441 118.655 107.355 118.703C107.268 118.751 107.182 118.775 107.095 118.775H105.814C105.727 118.775 105.655 118.746 105.598 118.689C105.54 118.631 105.511 118.564 105.511 118.487C105.521 118.074 105.607 117.676 105.771 117.292C105.934 116.898 106.169 116.553 106.476 116.255C106.793 115.948 107.177 115.703 107.628 115.521C108.079 115.338 108.588 115.247 109.155 115.247C109.951 115.247 110.609 115.381 111.127 115.65C111.655 115.919 112.049 116.284 112.308 116.745C112.577 117.205 112.711 117.724 112.711 118.3C112.711 118.751 112.625 119.169 112.452 119.553C112.279 119.927 112.03 120.292 111.703 120.647C111.377 120.993 110.983 121.348 110.523 121.713L108.478 123.786H112.582C112.687 123.786 112.769 123.82 112.827 123.887C112.894 123.945 112.927 124.026 112.927 124.132V125.154C112.927 125.25 112.894 125.332 112.827 125.399C112.769 125.466 112.687 125.5 112.582 125.5H105.699Z" fill="#17CFCE"/>
<path d="M58.1176 104.3C57.99 104.3 57.8856 104.259 57.8044 104.178C57.7232 104.097 57.6826 103.992 57.6826 103.865V92.5548C57.6826 92.4272 57.7232 92.3228 57.8044 92.2416C57.8856 92.1604 57.99 92.1198 58.1176 92.1198H60.4144C60.5304 92.1198 60.629 92.1604 60.7102 92.2416C60.803 92.3228 60.8494 92.4272 60.8494 92.5548V101.672H66.1042C66.2318 101.672 66.3362 101.719 66.4174 101.812C66.5102 101.893 66.5566 101.997 66.5566 102.125V103.865C66.5566 103.992 66.5102 104.097 66.4174 104.178C66.3362 104.259 66.2318 104.3 66.1042 104.3H58.1176Z" fill="white"/>
<path d="M68.465 104.3C68.3374 104.3 68.233 104.259 68.1518 104.178C68.0706 104.097 68.03 103.992 68.03 103.865V92.5548C68.03 92.4272 68.0706 92.3228 68.1518 92.2416C68.233 92.1604 68.3374 92.1198 68.465 92.1198H76.5908C76.7184 92.1198 76.8228 92.1604 76.904 92.2416C76.9852 92.3228 77.0258 92.4272 77.0258 92.5548V94.1904C77.0258 94.318 76.9852 94.4224 76.904 94.5036C76.8228 94.5848 76.7184 94.6254 76.5908 94.6254H71.0402V96.9744H76.208C76.3356 96.9744 76.44 97.0208 76.5212 97.1136C76.6024 97.1948 76.643 97.2992 76.643 97.4268V98.9406C76.643 99.0566 76.6024 99.161 76.5212 99.2538C76.44 99.335 76.3356 99.3756 76.208 99.3756H71.0402V101.794H76.73C76.8576 101.794 76.962 101.835 77.0432 101.916C77.1244 101.997 77.165 102.102 77.165 102.229V103.865C77.165 103.992 77.1244 104.097 77.0432 104.178C76.962 104.259 76.8576 104.3 76.73 104.3H68.465Z" fill="white"/>
<path d="M78.4121 104.3C78.3193 104.3 78.2323 104.265 78.1511 104.195C78.0815 104.114 78.0467 104.027 78.0467 103.934C78.0467 103.876 78.0525 103.824 78.0641 103.778L82.1531 92.607C82.1879 92.4794 82.2575 92.3692 82.3619 92.2764C82.4779 92.172 82.6345 92.1198 82.8317 92.1198H85.4069C85.6041 92.1198 85.7549 92.172 85.8593 92.2764C85.9753 92.3692 86.0507 92.4794 86.0855 92.607L90.1571 103.778C90.1803 103.824 90.1919 103.876 90.1919 103.934C90.1919 104.027 90.1513 104.114 90.0701 104.195C90.0005 104.265 89.9135 104.3 89.8091 104.3H87.6689C87.4949 104.3 87.3615 104.259 87.2687 104.178C87.1875 104.085 87.1353 104.004 87.1121 103.934L86.4335 102.16H81.7877L81.1265 103.934C81.1033 104.004 81.0511 104.085 80.9699 104.178C80.8887 104.259 80.7495 104.3 80.5523 104.3H78.4121ZM82.5011 99.654H85.7375L84.1019 95.0604L82.5011 99.654Z" fill="white"/>
<path d="M91.9636 104.3C91.836 104.3 91.7316 104.259 91.6504 104.178C91.5692 104.097 91.5286 103.992 91.5286 103.865V92.5548C91.5286 92.4272 91.5692 92.3228 91.6504 92.2416C91.7316 92.1604 91.836 92.1198 91.9636 92.1198H96.4876C97.6244 92.1198 98.593 92.3054 99.3934 92.6766C100.194 93.0362 100.809 93.5698 101.238 94.2774C101.667 94.9734 101.899 95.8376 101.934 96.87C101.945 97.3804 101.951 97.827 101.951 98.2098C101.951 98.5926 101.945 99.0334 101.934 99.5322C101.887 100.611 101.655 101.504 101.238 102.212C100.832 102.919 100.234 103.447 99.4456 103.795C98.6684 104.132 97.7114 104.3 96.5746 104.3H91.9636ZM94.6432 101.794H96.4876C96.9864 101.794 97.3982 101.719 97.723 101.568C98.0594 101.406 98.3088 101.156 98.4712 100.82C98.6452 100.483 98.738 100.043 98.7496 99.4974C98.7728 99.161 98.7844 98.8594 98.7844 98.5926C98.796 98.3258 98.796 98.059 98.7844 97.7922C98.7844 97.5254 98.7728 97.2296 98.7496 96.9048C98.7264 96.116 98.5176 95.5418 98.1232 95.1822C97.7404 94.811 97.1662 94.6254 96.4006 94.6254H94.6432V101.794Z" fill="white"/>
<path d="M104.384 104.3C104.256 104.3 104.152 104.259 104.071 104.178C103.99 104.097 103.949 103.992 103.949 103.865V92.5548C103.949 92.4272 103.99 92.3228 104.071 92.2416C104.152 92.1604 104.256 92.1198 104.384 92.1198H112.51C112.637 92.1198 112.742 92.1604 112.823 92.2416C112.904 92.3228 112.945 92.4272 112.945 92.5548V94.1904C112.945 94.318 112.904 94.4224 112.823 94.5036C112.742 94.5848 112.637 94.6254 112.51 94.6254H106.959V96.9744H112.127C112.255 96.9744 112.359 97.0208 112.44 97.1136C112.521 97.1948 112.562 97.2992 112.562 97.4268V98.9406C112.562 99.0566 112.521 99.161 112.44 99.2538C112.359 99.335 112.255 99.3756 112.127 99.3756H106.959V101.794H112.649C112.777 101.794 112.881 101.835 112.962 101.916C113.043 101.997 113.084 102.102 113.084 102.229V103.865C113.084 103.992 113.043 104.097 112.962 104.178C112.881 104.259 112.777 104.3 112.649 104.3H104.384Z" fill="white"/>
<path d="M115.462 104.3C115.335 104.3 115.23 104.259 115.149 104.178C115.068 104.097 115.027 103.992 115.027 103.865V92.5548C115.027 92.4272 115.068 92.3228 115.149 92.2416C115.23 92.1604 115.335 92.1198 115.462 92.1198H120.195C121.691 92.1198 122.869 92.4678 123.727 93.1638C124.597 93.8482 125.032 94.8226 125.032 96.087C125.032 96.9106 124.829 97.6066 124.423 98.175C124.029 98.7434 123.507 99.1726 122.857 99.4626L125.258 103.743C125.293 103.813 125.311 103.876 125.311 103.934C125.311 104.027 125.27 104.114 125.189 104.195C125.119 104.265 125.032 104.3 124.928 104.3H122.631C122.411 104.3 122.248 104.248 122.144 104.143C122.039 104.027 121.964 103.923 121.918 103.83L119.934 100.002H118.142V103.865C118.142 103.992 118.101 104.097 118.02 104.178C117.939 104.259 117.834 104.3 117.707 104.3H115.462ZM118.142 97.5486H120.16C120.705 97.5486 121.111 97.4152 121.378 97.1484C121.657 96.8816 121.796 96.5162 121.796 96.0522C121.796 95.5998 121.662 95.2344 121.396 94.956C121.14 94.6776 120.729 94.5384 120.16 94.5384H118.142V97.5486Z" fill="white"/>
<path d="M131.564 104.474C130.404 104.474 129.441 104.311 128.676 103.987C127.91 103.65 127.33 103.215 126.936 102.682C126.541 102.148 126.333 101.58 126.309 100.976C126.309 100.884 126.344 100.802 126.414 100.733C126.495 100.652 126.588 100.611 126.692 100.611H128.885C129.047 100.611 129.169 100.64 129.25 100.698C129.343 100.756 129.424 100.831 129.494 100.924C129.586 101.098 129.714 101.266 129.876 101.429C130.05 101.591 130.271 101.725 130.538 101.829C130.816 101.922 131.158 101.968 131.564 101.968C132.237 101.968 132.742 101.864 133.078 101.655C133.426 101.446 133.6 101.162 133.6 100.802C133.6 100.547 133.507 100.338 133.322 100.176C133.136 100.002 132.834 99.8512 132.417 99.7236C132.011 99.5844 131.466 99.4452 130.781 99.306C129.9 99.1204 129.146 98.8826 128.519 98.5926C127.904 98.291 127.435 97.9024 127.11 97.4268C126.785 96.9396 126.623 96.3364 126.623 95.6172C126.623 94.9096 126.82 94.2774 127.214 93.7206C127.62 93.1638 128.183 92.7288 128.902 92.4156C129.621 92.1024 130.474 91.9458 131.46 91.9458C132.26 91.9458 132.962 92.0502 133.565 92.259C134.18 92.4678 134.696 92.7462 135.114 93.0942C135.531 93.4422 135.845 93.8134 136.053 94.2078C136.274 94.5906 136.39 94.9676 136.401 95.3388C136.401 95.4316 136.367 95.5186 136.297 95.5998C136.227 95.6694 136.14 95.7042 136.036 95.7042H133.739C133.612 95.7042 133.501 95.681 133.409 95.6346C133.316 95.5882 133.235 95.5128 133.165 95.4084C133.095 95.1532 132.91 94.9328 132.608 94.7472C132.318 94.55 131.935 94.4514 131.46 94.4514C130.949 94.4514 130.549 94.5442 130.259 94.7298C129.981 94.9038 129.842 95.1764 129.842 95.5476C129.842 95.7796 129.917 95.9826 130.068 96.1566C130.23 96.3306 130.491 96.4814 130.851 96.609C131.222 96.7366 131.727 96.87 132.365 97.0092C133.42 97.2064 134.273 97.4558 134.922 97.7574C135.572 98.0474 136.048 98.4302 136.349 98.9058C136.651 99.3698 136.802 99.9556 136.802 100.663C136.802 101.452 136.575 102.136 136.123 102.716C135.682 103.285 135.067 103.72 134.279 104.021C133.49 104.323 132.585 104.474 131.564 104.474Z" fill="white"/>
<path d="M70.6206 88.722C69.8723 88.722 69.2501 88.5837 68.754 88.3072C68.266 88.0307 67.8959 87.6443 67.6438 87.1482C67.3917 86.6521 67.2534 86.0746 67.229 85.4158C67.2209 85.0823 67.2168 84.7245 67.2168 84.3422C67.2168 83.9599 67.2209 83.5939 67.229 83.2442C67.2534 82.5854 67.3917 82.0079 67.6438 81.5118C67.8959 81.0157 68.266 80.6293 68.754 80.3528C69.2501 80.0763 69.8723 79.938 70.6206 79.938C71.1818 79.938 71.6739 80.0153 72.0968 80.1698C72.5197 80.3243 72.8695 80.5317 73.146 80.792C73.4307 81.0523 73.6462 81.3451 73.7926 81.6704C73.939 81.9876 74.0203 82.317 74.0366 82.6586C74.0447 82.7318 74.0203 82.7928 73.9634 82.8416C73.9146 82.8904 73.8536 82.9148 73.7804 82.9148H73.1094C73.0362 82.9148 72.9711 82.8945 72.9142 82.8538C72.8654 82.8131 72.8288 82.7399 72.8044 82.6342C72.6661 81.9998 72.4059 81.5647 72.0236 81.3288C71.6495 81.0929 71.1777 80.975 70.6084 80.975C69.9577 80.975 69.4413 81.1621 69.059 81.5362C68.6767 81.9022 68.4693 82.4919 68.4368 83.3052C68.4124 83.9721 68.4124 84.6553 68.4368 85.3548C68.4693 86.1681 68.6767 86.7619 69.059 87.136C69.4413 87.502 69.9577 87.685 70.6084 87.685C71.1777 87.685 71.6495 87.5671 72.0236 87.3312C72.4059 87.0953 72.6661 86.6602 72.8044 86.0258C72.8288 85.9201 72.8654 85.8469 72.9142 85.8062C72.9711 85.7655 73.0362 85.7452 73.1094 85.7452H73.7804C73.8536 85.7452 73.9146 85.7696 73.9634 85.8184C74.0203 85.8672 74.0447 85.9282 74.0366 86.0014C74.0203 86.343 73.939 86.6765 73.7926 87.0018C73.6462 87.319 73.4307 87.6077 73.146 87.868C72.8695 88.1283 72.5197 88.3357 72.0968 88.4902C71.6739 88.6447 71.1818 88.722 70.6206 88.722Z" fill="white"/>
<path d="M74.8684 88.6C74.8033 88.6 74.7464 88.5756 74.6976 88.5268C74.6488 88.478 74.6244 88.4211 74.6244 88.356C74.6244 88.3153 74.6285 88.2706 74.6366 88.2218L77.6622 80.3284C77.6947 80.2471 77.7395 80.182 77.7964 80.1332C77.8533 80.0844 77.9387 80.06 78.0526 80.06H78.8822C78.9879 80.06 79.0693 80.0844 79.1262 80.1332C79.1913 80.182 79.2401 80.2471 79.2726 80.3284L82.286 88.2218C82.3023 88.2706 82.3104 88.3153 82.3104 88.356C82.3104 88.4211 82.286 88.478 82.2372 88.5268C82.1884 88.5756 82.1315 88.6 82.0664 88.6H81.4442C81.3466 88.6 81.2734 88.5756 81.2246 88.5268C81.1839 88.478 81.1555 88.4333 81.1392 88.3926L80.4682 86.6602H76.4666L75.7956 88.3926C75.7875 88.4333 75.759 88.478 75.7102 88.5268C75.6614 88.5756 75.5882 88.6 75.4906 88.6H74.8684ZM76.8204 85.611H80.1144L78.4674 81.28L76.8204 85.611Z" fill="white"/>
<path d="M84.7102 88.6C84.6288 88.6 84.5597 88.5756 84.5028 88.5268C84.454 88.4699 84.4296 88.4007 84.4296 88.3194V81.1458H82.0872C82.0058 81.1458 81.9367 81.1214 81.8798 81.0726C81.831 81.0157 81.8066 80.9465 81.8066 80.8652V80.3528C81.8066 80.2633 81.831 80.1942 81.8798 80.1454C81.9367 80.0885 82.0058 80.06 82.0872 80.06H87.9676C88.057 80.06 88.1262 80.0885 88.175 80.1454C88.2319 80.1942 88.2604 80.2633 88.2604 80.3528V80.8652C88.2604 80.9465 88.2319 81.0157 88.175 81.0726C88.1262 81.1214 88.057 81.1458 87.9676 81.1458H85.6374V88.3194C85.6374 88.4007 85.6089 88.4699 85.552 88.5268C85.5032 88.5756 85.434 88.6 85.3446 88.6H84.7102Z" fill="white"/>
<path d="M89.7622 88.6C89.6727 88.6 89.6036 88.5756 89.5548 88.5268C89.506 88.4699 89.4816 88.4007 89.4816 88.3194V80.3528C89.4816 80.2633 89.506 80.1942 89.5548 80.1454C89.6036 80.0885 89.6727 80.06 89.7622 80.06H94.8008C94.8903 80.06 94.9594 80.0885 95.0082 80.1454C95.057 80.1942 95.0814 80.2633 95.0814 80.3528V80.8164C95.0814 80.9059 95.057 80.975 95.0082 81.0238C94.9594 81.0726 94.8903 81.097 94.8008 81.097H90.6528V83.7688H94.5324C94.6219 83.7688 94.691 83.7973 94.7398 83.8542C94.7886 83.903 94.813 83.9721 94.813 84.0616V84.513C94.813 84.5943 94.7886 84.6635 94.7398 84.7204C94.691 84.7692 94.6219 84.7936 94.5324 84.7936H90.6528V87.563H94.8984C94.9879 87.563 95.057 87.5874 95.1058 87.6362C95.1546 87.685 95.179 87.7541 95.179 87.8436V88.3194C95.179 88.4007 95.1546 88.4699 95.1058 88.5268C95.057 88.5756 94.9879 88.6 94.8984 88.6H89.7622Z" fill="white"/>
<path d="M99.7492 88.722C99.0335 88.722 98.4235 88.5878 97.9192 88.3194C97.4231 88.051 97.0408 87.6728 96.7724 87.1848C96.5122 86.6968 96.3658 86.1234 96.3332 85.4646C96.3251 85.1067 96.321 84.7285 96.321 84.33C96.321 83.9233 96.3251 83.537 96.3332 83.171C96.3658 82.5122 96.5122 81.9429 96.7724 81.463C97.0408 80.9831 97.4272 80.609 97.9314 80.3406C98.4357 80.0722 99.0416 79.938 99.7492 79.938C100.327 79.938 100.827 80.0193 101.25 80.182C101.673 80.3447 102.018 80.5521 102.287 80.8042C102.563 81.0482 102.767 81.3044 102.897 81.5728C103.035 81.8412 103.108 82.0771 103.116 82.2804C103.125 82.3536 103.104 82.4146 103.055 82.4634C103.007 82.5041 102.942 82.5244 102.86 82.5244H102.14C102.059 82.5244 101.998 82.5081 101.957 82.4756C101.925 82.4431 101.892 82.3861 101.86 82.3048C101.787 82.0933 101.665 81.8859 101.494 81.6826C101.331 81.4793 101.108 81.3125 100.823 81.1824C100.546 81.0441 100.188 80.975 99.7492 80.975C99.1067 80.975 98.5862 81.1499 98.1876 81.4996C97.7972 81.8493 97.5858 82.4268 97.5532 83.232C97.5288 83.9559 97.5288 84.6797 97.5532 85.4036C97.5858 86.2169 97.8013 86.8025 98.1998 87.1604C98.5984 87.5101 99.1189 87.685 99.7614 87.685C100.193 87.685 100.575 87.6077 100.908 87.4532C101.25 87.2905 101.518 87.0425 101.713 86.709C101.909 86.3755 102.006 85.9526 102.006 85.4402V84.9278H100.176C100.095 84.9278 100.026 84.9034 99.9688 84.8546C99.92 84.7977 99.8956 84.7245 99.8956 84.635V84.2446C99.8956 84.1551 99.92 84.086 99.9688 84.0372C100.026 83.9803 100.095 83.9518 100.176 83.9518H102.933C103.023 83.9518 103.092 83.9803 103.141 84.0372C103.19 84.086 103.214 84.1551 103.214 84.2446V85.4158C103.214 86.0827 103.076 86.6643 102.799 87.1604C102.531 87.6565 102.136 88.0429 101.616 88.3194C101.095 88.5878 100.473 88.722 99.7492 88.722Z" fill="white"/>
<path d="M107.87 88.722C107.179 88.722 106.585 88.6041 106.089 88.3682C105.593 88.1242 105.211 87.7541 104.942 87.258C104.674 86.7537 104.523 86.1234 104.491 85.367C104.483 85.0091 104.479 84.6675 104.479 84.3422C104.479 84.0087 104.483 83.6631 104.491 83.3052C104.523 82.5569 104.678 81.9347 104.955 81.4386C105.239 80.9343 105.63 80.5602 106.126 80.3162C106.63 80.0641 107.212 79.938 107.87 79.938C108.537 79.938 109.119 80.0641 109.615 80.3162C110.119 80.5602 110.514 80.9343 110.798 81.4386C111.083 81.9347 111.238 82.5569 111.262 83.3052C111.278 83.6631 111.286 84.0087 111.286 84.3422C111.286 84.6675 111.278 85.0091 111.262 85.367C111.238 86.1234 111.087 86.7537 110.811 87.258C110.542 87.7541 110.16 88.1242 109.664 88.3682C109.168 88.6041 108.57 88.722 107.87 88.722ZM107.87 87.685C108.497 87.685 109.005 87.4979 109.395 87.1238C109.794 86.7497 110.009 86.1437 110.042 85.306C110.058 84.94 110.066 84.6147 110.066 84.33C110.066 84.0372 110.058 83.7119 110.042 83.354C110.026 82.7928 109.92 82.3373 109.725 81.9876C109.538 81.6379 109.286 81.3817 108.968 81.219C108.651 81.0563 108.285 80.975 107.87 80.975C107.472 80.975 107.114 81.0563 106.797 81.219C106.48 81.3817 106.223 81.6379 106.028 81.9876C105.841 82.3373 105.735 82.7928 105.711 83.354C105.703 83.7119 105.699 84.0372 105.699 84.33C105.699 84.6147 105.703 84.94 105.711 85.306C105.743 86.1437 105.959 86.7497 106.358 87.1238C106.756 87.4979 107.26 87.685 107.87 87.685Z" fill="white"/>
<path d="M113.199 88.6C113.109 88.6 113.04 88.5756 112.991 88.5268C112.943 88.4699 112.918 88.4007 112.918 88.3194V80.3528C112.918 80.2633 112.943 80.1942 112.991 80.1454C113.04 80.0885 113.109 80.06 113.199 80.06H116.176C117.095 80.06 117.823 80.2755 118.359 80.7066C118.896 81.1377 119.165 81.7761 119.165 82.622C119.165 83.2483 119.006 83.7607 118.689 84.1592C118.38 84.5496 117.957 84.8221 117.42 84.9766L119.299 88.2218C119.323 88.2706 119.335 88.3153 119.335 88.356C119.335 88.4211 119.307 88.478 119.25 88.5268C119.201 88.5756 119.144 88.6 119.079 88.6H118.494C118.355 88.6 118.254 88.5634 118.189 88.4902C118.124 88.417 118.067 88.3438 118.018 88.2706L116.249 85.1718H114.114V88.3194C114.114 88.4007 114.085 88.4699 114.028 88.5268C113.98 88.5756 113.91 88.6 113.821 88.6H113.199ZM114.114 84.1348H116.127C116.737 84.1348 117.192 84.0087 117.493 83.7566C117.794 83.4963 117.945 83.1141 117.945 82.6098C117.945 82.1137 117.794 81.7355 117.493 81.4752C117.2 81.2149 116.745 81.0848 116.127 81.0848H114.114V84.1348Z" fill="white"/>
<path d="M123.03 88.6C122.949 88.6 122.88 88.5756 122.823 88.5268C122.774 88.4699 122.75 88.4007 122.75 88.3194V85.4402L119.809 80.4626C119.801 80.4382 119.793 80.4138 119.785 80.3894C119.777 80.365 119.773 80.3365 119.773 80.304C119.773 80.2389 119.797 80.182 119.846 80.1332C119.895 80.0844 119.952 80.06 120.017 80.06H120.651C120.724 80.06 120.79 80.0803 120.846 80.121C120.903 80.1535 120.944 80.2023 120.968 80.2674L123.347 84.2202L125.726 80.2674C125.767 80.2023 125.812 80.1535 125.861 80.121C125.918 80.0803 125.983 80.06 126.056 80.06H126.678C126.751 80.06 126.812 80.0844 126.861 80.1332C126.91 80.182 126.934 80.2389 126.934 80.304C126.934 80.3365 126.93 80.365 126.922 80.3894C126.914 80.4138 126.902 80.4382 126.885 80.4626L123.957 85.4402V88.3194C123.957 88.4007 123.929 88.4699 123.872 88.5268C123.823 88.5756 123.754 88.6 123.665 88.6H123.03Z" fill="white"/>
</svg>
