<svg xmlns="http://www.w3.org/2000/svg" width="100" height="96" fill="none"><path fill="#fff" d="M15 74.796 50.911 93.07l34.547-18.274V3.338H15v71.458Z"/><path fill="#F2F3F2" d="M86.186 3.611 14.273 76.07l37.275 18.455 34.638-17.728V3.61Z"/><path fill="#DCDEDC" d="M12.637 27.158v49.184l1.273.637 35.91 18.273 1.091.546 1.091-.546L86.64 76.98l1.273-.637V.975H12.637v26.183ZM15 74.978V3.338h70.548v71.64L50.911 93.252l-35.91-18.274Z"/><path fill="#FF492C" d="M50.275 4.52c.363 0 .727 0 1.09.091l-1.09 2.091c-1.637-.09-3.091 1.182-3.182 2.818-.091 1.637 1.182 3.092 2.818 3.183h.364c.727 0 1.454-.273 2-.728l1.182 2c-.91.637-2 1-3.182 1-2.91.091-5.364-2.09-5.455-5-.091-2.91 2.091-5.364 5-5.455h.455Zm3.727 4.455 1.364 2.273-1.364 2.182-1.273-2.182h-2.636l1.364-2.273h2.545Zm-2.182-.818c0-.364.091-.728.273-1 .182-.273.545-.546.818-.728l.182-.09c.364-.182.455-.273.455-.455s-.273-.364-.455-.364c-.364 0-.636.182-.818.546l-.455-.455c.091-.182.273-.363.455-.545.273-.182.545-.182.818-.182.273 0 .636.09.818.273.182.181.364.454.364.727 0 .455-.273.818-.818 1l-.273.182c-.273.182-.455.273-.545.545h1.636v.637l-2.455-.091ZM50.275 19.52l8.637-4.91V.976H41.547V14.52l8.728 5ZM89.64 51.704H10.91L8 58.068l2.91 6.365h78.73l2.819-6.365-2.819-6.364Z"/><path fill="#252530" d="M24.992 47.613a.185.185 0 0 1-.137-.054.217.217 0 0 1-.054-.146V36.358c0-.054.018-.103.054-.145a.185.185 0 0 1 .137-.055h1.918c.054 0 .1.018.136.055a.2.2 0 0 1 .064.145v9.192c0 .054.027.081.082.081h5.345c.055 0 .103.019.146.055.036.042.054.09.054.145v1.582a.217.217 0 0 1-.054.146.217.217 0 0 1-.146.054h-7.545Zm16.464-5.073c.067.413.088.876.064 1.391-.006.134-.076.2-.21.2h-5.054c-.067 0-.088.028-.064.082a2.9 2.9 0 0 0 .173.655c.285.606.863.909 1.736.909.697-.006 1.249-.288 1.655-.846.042-.066.09-.1.145-.1.037 0 .076.022.119.064l1.172 1.164c.055.054.082.103.082.145 0 .024-.021.07-.063.137a3.603 3.603 0 0 1-1.392 1.036 4.667 4.667 0 0 1-1.863.364c-.94 0-1.734-.212-2.382-.637-.649-.424-1.115-1.018-1.4-1.782-.23-.545-.346-1.26-.346-2.145 0-.6.082-1.128.246-1.582.254-.776.694-1.394 1.318-1.855.63-.454 1.376-.682 2.236-.682 1.091 0 1.967.316 2.628.946.66.63 1.06 1.476 1.2 2.536Zm-3.81-1.49c-.69 0-1.145.32-1.363.963a3.983 3.983 0 0 0-.11.527c0 .055.028.082.083.082h2.827c.067 0 .088-.027.064-.082a11.684 11.684 0 0 0-.082-.454 1.429 1.429 0 0 0-.51-.764c-.248-.182-.55-.273-.908-.273Zm8.574-1.982c.709 0 1.342.124 1.9.372.558.243.991.579 1.3 1.01.31.424.464.896.464 1.418v5.545a.217.217 0 0 1-.055.146.185.185 0 0 1-.136.054h-1.918a.185.185 0 0 1-.137-.054.2.2 0 0 1-.063-.146v-.536c0-.03-.01-.052-.028-.064-.024-.012-.045-.003-.063.028-.461.6-1.197.9-2.21.9-.854 0-1.542-.206-2.063-.619-.528-.412-.791-1.024-.791-1.836 0-.837.297-1.488.89-1.955.589-.46 1.428-.69 2.519-.69h1.664c.054 0 .081-.028.081-.082v-.364c0-.358-.109-.64-.327-.846-.218-.2-.545-.3-.982-.3-.333 0-.612.061-.836.182a.853.853 0 0 0-.436.51c-.03.12-.1.175-.21.163l-1.982-.264c-.133-.024-.193-.072-.181-.145.042-.46.224-.876.545-1.246.321-.37.749-.657 1.282-.863.527-.213 1.118-.319 1.773-.319Zm-.327 6.954c.466 0 .863-.124 1.19-.372.328-.249.492-.57.492-.964v-.591c0-.054-.028-.082-.082-.082H46.32c-.491 0-.876.094-1.155.282a.878.878 0 0 0-.418.782c0 .297.103.527.31.69.205.17.484.255.836.255Zm10.837-9.664c0-.054.018-.103.054-.145a.185.185 0 0 1 .136-.055h1.919c.054 0 .1.018.136.055a.218.218 0 0 1 .055.145v11.055a.217.217 0 0 1-.055.146.185.185 0 0 1-.136.054H56.92a.185.185 0 0 1-.136-.054.217.217 0 0 1-.054-.146v-.536c0-.03-.013-.049-.037-.055a.063.063 0 0 0-.063.019c-.461.6-1.088.9-1.882.9-.764 0-1.422-.212-1.973-.637-.552-.424-.949-1.006-1.191-1.745-.182-.57-.273-1.23-.273-1.982 0-.776.097-1.452.291-2.028.255-.703.652-1.257 1.19-1.663.54-.413 1.207-.618 2.001-.618.788 0 1.4.272 1.837.818.018.036.039.048.063.036.024-.012.037-.033.037-.064v-3.5Zm-.346 8.7c.218-.4.327-.95.327-1.654 0-.727-.12-1.3-.363-1.718-.249-.425-.612-.637-1.091-.637-.515 0-.903.212-1.164.637-.273.43-.41 1.009-.41 1.736 0 .655.116 1.2.346 1.637.273.472.676.709 1.21.709.49 0 .872-.237 1.145-.71Zm11.828-2.518c.066.413.088.876.063 1.391-.006.134-.075.2-.209.2h-5.055c-.066 0-.087.028-.063.082.03.218.088.437.173.655.285.606.863.909 1.736.909.697-.006 1.249-.288 1.655-.846.043-.066.09-.1.145-.1.037 0 .076.022.118.064l1.173 1.164c.055.054.082.103.082.145 0 .024-.021.07-.064.137a3.605 3.605 0 0 1-1.39 1.036 4.669 4.669 0 0 1-1.864.364c-.94 0-1.734-.212-2.382-.637-.649-.424-1.115-1.018-1.4-1.782-.23-.545-.346-1.26-.346-2.145 0-.6.082-1.128.246-1.582.254-.776.694-1.394 1.318-1.855.63-.454 1.376-.682 2.236-.682 1.091 0 1.967.316 2.628.946.66.63 1.06 1.476 1.2 2.536Zm-3.81-1.49c-.69 0-1.145.32-1.363.963-.043.145-.08.321-.11.527 0 .055.028.082.082.082h2.828c.067 0 .088-.027.064-.082a11.21 11.21 0 0 0-.082-.454 1.426 1.426 0 0 0-.51-.764c-.248-.182-.551-.273-.909-.273Zm9.492-1.964c.394 0 .703.075.927.227.091.048.124.13.1.245l-.345 1.873c-.006.128-.082.164-.227.11a1.816 1.816 0 0 0-.574-.082c-.084 0-.202.012-.354.036a1.6 1.6 0 0 0-1 .427c-.273.26-.409.603-.409 1.028v4.463a.216.216 0 0 1-.055.146.218.218 0 0 1-.145.054h-1.909a.218.218 0 0 1-.146-.054.219.219 0 0 1-.054-.146v-8.018c0-.055.018-.1.054-.137a.218.218 0 0 1 .146-.054h1.91c.053 0 .102.018.144.054a.184.184 0 0 1 .055.137v.627c0 .03.01.052.027.064.025.012.043.006.055-.018.449-.655 1.049-.982 1.8-.982Z"/><path fill="#fff" d="M36.001 61.614c-.066 0-.109-.03-.127-.09l-1.654-6.156-.01-.036c0-.055.034-.082.1-.082h.891c.067 0 .11.03.128.09l1.036 4.146c.006.019.015.028.027.028s.022-.01.028-.028l.99-4.145c.019-.06.058-.091.119-.091h.873c.066 0 .109.03.127.09l1.054 4.156c.007.018.016.027.028.027s.02-.01.027-.027l1.018-4.155c.018-.06.06-.091.127-.091h.846c.085 0 .118.04.1.118l-1.573 6.155c-.018.06-.06.09-.127.09h-.846c-.066 0-.109-.03-.127-.09l-1.063-4.337c-.007-.018-.016-.03-.028-.036-.012 0-.021.012-.027.036l-1.018 4.337c-.019.06-.058.09-.119.09h-.8Zm6.737 0a.114.114 0 0 1-.082-.036.1.1 0 0 1-.027-.073v-6.146c0-.03.01-.055.027-.073a.113.113 0 0 1 .082-.036h.837c.03 0 .054.012.072.036a.086.086 0 0 1 .037.073v6.146c0 .03-.012.054-.037.073a.087.087 0 0 1-.072.036h-.837Zm5.973-6.255c0-.03.01-.055.028-.073a.113.113 0 0 1 .081-.036h.837c.03 0 .054.012.072.036a.086.086 0 0 1 .037.073v6.146c0 .03-.012.054-.037.073a.087.087 0 0 1-.072.036h-.81c-.06 0-.102-.024-.127-.073l-2.618-4.29c-.012-.02-.024-.028-.036-.028-.013.006-.019.021-.019.045l.019 4.237c0 .03-.013.054-.037.073a.087.087 0 0 1-.073.036h-.836a.113.113 0 0 1-.082-.036.1.1 0 0 1-.027-.073v-6.146c0-.03.01-.055.027-.073a.113.113 0 0 1 .082-.036h.81c.06 0 .102.024.127.073l2.609 4.29c.012.019.024.025.036.019.012 0 .018-.012.018-.036l-.009-4.237Zm6.564-.109c.03 0 .055.012.073.036a.086.086 0 0 1 .036.073v.7c0 .03-.012.055-.036.073a.086.086 0 0 1-.073.036h-1.673c-.03 0-.045.015-.045.046v5.29a.1.1 0 0 1-.027.074.113.113 0 0 1-.082.036h-.837a.087.087 0 0 1-.072-.036.087.087 0 0 1-.037-.073v-5.291c0-.03-.015-.046-.045-.046h-1.61a.113.113 0 0 1-.081-.036.098.098 0 0 1-.027-.073v-.7c0-.03.009-.055.027-.073a.113.113 0 0 1 .082-.036h4.427Zm5.391.8c0 .03-.012.055-.036.073a.086.086 0 0 1-.073.036h-3.1c-.03 0-.045.015-.045.046v1.7c0 .03.015.045.045.045h2.082c.03 0 .057.01.082.027a.133.133 0 0 1 .027.082v.691c0 .03-.009.058-.027.082a.133.133 0 0 1-.082.027h-2.082c-.03 0-.045.015-.045.046v1.754c0 .03.015.046.045.046h3.1c.03 0 .055.012.073.036a.085.085 0 0 1 .036.073v.69c0 .031-.012.055-.036.074a.087.087 0 0 1-.073.036h-4.09a.113.113 0 0 1-.083-.036.1.1 0 0 1-.027-.073v-6.146c0-.03.01-.055.027-.073a.113.113 0 0 1 .082-.036h4.091c.03 0 .055.012.073.036a.086.086 0 0 1 .036.073v.691Zm4.646 5.564a.128.128 0 0 1-.127-.082l-1.2-2.618c-.012-.025-.03-.037-.055-.037h-1.09c-.031 0-.046.016-.046.046v2.582c0 .03-.012.054-.037.073a.087.087 0 0 1-.072.036h-.837a.112.112 0 0 1-.081-.036.098.098 0 0 1-.028-.073v-6.146c0-.03.009-.055.028-.073a.112.112 0 0 1 .081-.036h2.5c.37 0 .697.076.982.227.285.158.506.376.664.655.157.285.236.609.236.973 0 .418-.109.772-.327 1.063a1.64 1.64 0 0 1-.891.618c-.012 0-.021.007-.028.019a.04.04 0 0 0 0 .036l1.283 2.646a.14.14 0 0 1 .018.054c0 .049-.033.073-.1.073h-.873Zm-2.473-5.455c-.03 0-.045.015-.045.046v1.809c0 .03.015.045.045.045h1.364c.29 0 .527-.088.709-.263.176-.17.264-.397.264-.682 0-.285-.088-.515-.264-.691-.182-.176-.418-.264-.71-.264H62.84Z"/><path fill="#252530" d="M38.574 78.033c-.018.019-.024.037-.018.055.012.018.03.027.055.027h3.573a.15.15 0 0 1 .109.045c.036.03.054.067.054.11v1.282a.139.139 0 0 1-.054.109.15.15 0 0 1-.11.045h-5.927a.16.16 0 0 1-.118-.045.15.15 0 0 1-.046-.11v-1.218c0-.079.028-.145.082-.2.43-.418.87-.876 1.319-1.373.448-.497.73-.806.845-.927.242-.29.49-.57.745-.837.8-.884 1.2-1.542 1.2-1.972a.99.99 0 0 0-.327-.764c-.218-.194-.503-.29-.854-.29-.352 0-.637.096-.855.29-.224.2-.336.463-.336.791v.327c0 .043-.016.08-.046.11a.148.148 0 0 1-.109.045h-1.554a.148.148 0 0 1-.11-.046.137.137 0 0 1-.054-.109v-.618c.03-.473.182-.894.454-1.264a2.622 2.622 0 0 1 1.082-.836 3.858 3.858 0 0 1 1.528-.29c.624 0 1.166.117 1.627.354.46.23.815.542 1.064.936.254.4.382.84.382 1.319 0 .37-.094.748-.282 1.136-.182.388-.458.806-.828 1.255-.272.338-.566.678-.881 1.018a97.04 97.04 0 0 1-1.41 1.445l-.2.2Zm8.055 1.819c-.97 0-1.733-.27-2.29-.81-.564-.54-.846-1.276-.846-2.21v-3.48c0-.916.282-1.64.845-2.174.558-.54 1.322-.809 2.291-.809.964 0 1.73.27 2.3.81.564.532.846 1.257.846 2.172v3.482c0 .933-.282 1.67-.846 2.21-.57.538-1.336.808-2.3.808Zm0-1.592c.394 0 .706-.12.937-.363.236-.243.354-.567.354-.973v-3.628c0-.4-.118-.72-.354-.963-.23-.242-.543-.364-.937-.364-.388 0-.697.122-.927.364-.236.242-.355.563-.355.963v3.628c0 .406.119.73.355.973.23.242.54.363.927.363Zm6.837-.227c-.018.019-.021.037-.01.055.007.018.025.027.055.027h3.573a.15.15 0 0 1 .11.045.15.15 0 0 1 .045.11v1.282a.15.15 0 0 1-.046.109.15.15 0 0 1-.109.045h-5.936a.15.15 0 0 1-.11-.045.15.15 0 0 1-.045-.11v-1.218a.29.29 0 0 1 .073-.2c.436-.418.876-.876 1.318-1.373.449-.497.73-.806.846-.927.248-.29.5-.57.754-.837.8-.884 1.2-1.542 1.2-1.972a.989.989 0 0 0-.327-.764c-.224-.194-.512-.29-.864-.29-.351 0-.636.096-.854.29-.219.2-.328.463-.328.791v.327c0 .043-.015.08-.045.11a.159.159 0 0 1-.118.045h-1.555a.148.148 0 0 1-.109-.046.148.148 0 0 1-.045-.109v-.618c.024-.473.172-.894.445-1.264a2.613 2.613 0 0 1 1.091-.836c.455-.194.96-.29 1.518-.29.624 0 1.167.117 1.628.354.466.23.824.542 1.072.936.249.4.373.84.373 1.319 0 .37-.09.748-.273 1.136-.188.388-.466.806-.836 1.255-.273.338-.567.678-.882 1.018-.315.333-.785.814-1.409 1.445l-.2.2Zm10.419-2.727c.175.4.264.863.264 1.39 0 .48-.08.919-.237 1.319a2.605 2.605 0 0 1-1.064 1.318c-.497.322-1.084.482-1.764.482-.666 0-1.251-.167-1.754-.5a2.88 2.88 0 0 1-1.091-1.364c-.121-.34-.191-.709-.21-1.11 0-.102.052-.153.155-.153h1.564c.103 0 .155.051.155.154.036.29.084.506.145.645.079.23.21.41.391.537.176.127.388.19.636.19.491 0 .83-.214 1.019-.644.12-.261.181-.567.181-.919 0-.418-.066-.757-.2-1.018-.2-.412-.536-.618-1.009-.618-.097 0-.2.027-.309.082-.103.06-.23.142-.382.245a.182.182 0 0 1-.1.037.124.124 0 0 1-.118-.073l-.782-1.1a.146.146 0 0 1-.027-.091c0-.055.018-.097.055-.127l2.09-1.837c.019-.018.028-.036.028-.054-.006-.018-.021-.028-.045-.028h-3.1a.182.182 0 0 1-.119-.045.15.15 0 0 1-.045-.11v-1.282c0-.041.015-.078.045-.108a.18.18 0 0 1 .118-.046h5.492a.16.16 0 0 1 .118.046.15.15 0 0 1 .045.108v1.456a.3.3 0 0 1-.09.2l-1.728 1.582c-.018.017-.024.032-.018.044 0 .02.018.028.054.028.764.151 1.31.606 1.637 1.364Z"/></svg>