<svg width="119" height="32" fill="none" xmlns="http://www.w3.org/2000/svg"><g clip-path="url(#a)" fill="#000"><path opacity=".85" d="M32.51 2.025h4.006c-.154 1.485-.154 3.958-.154 6.297 0 0 .038 6.881.23 8.23h-2.31c-.732 0-1.118-.449-1.271-.989-1.079.945-2.466 1.35-3.621 1.35-4.276 0-4.815-2.609-4.815-5.218V7.647c0-2.294-.077-4.363-.23-5.577h2.387c1.079 0 1.618.765 1.618 2.07v5.89c0 3.059.5 4.138 2.658 4.138.577 0 1.232 0 1.732-.224l-.115-5.353c.039-1.889-.038-5.081-.115-6.565v-.001Zm7.704 14.528c.154-1.53.154-6.567.154-6.567 0-2.339-.154-6.881-.27-8.096h2.312c.77 0 1.27.36 1.424 1.035 1.118-.946 2.311-1.395 3.506-1.395 4.198 0 4.853 3.014 4.853 5.263v4.093c0 2.294.116 4.498.27 5.712h-2.427c-1.117 0-1.618-.945-1.618-2.204V8.502c0-2.338-.192-4.138-2.696-4.138-.577 0-1.233.134-1.695.36l.039 5.263c0 1.843 0 3.643.153 6.61h-4.005v-.044ZM63.094 1.98c.654 0 1.81-.045 2.349-.18-.077.45-.385 1.62-.577 2.114-.347.81-.848 1.124-2.543 1.124h-1.348v4.948c0 1.844.038 5.127.192 6.657h-4.044c.154-1.53.192-4.813.192-6.657V5.038h-1.309c-1.117 0-2.003.09-2.465.405L53.502 3.6c0-1.124.193-1.619 1.618-1.619h7.975-.001Zm15.908 7.242c0 4.902-2.389 7.916-6.741 7.916-4.314 0-6.548-2.744-6.548-7.782 0-4.947 2.349-7.826 6.702-7.826 4.314.045 6.587 2.744 6.587 7.692Zm-9.592.045c0 3.373 1.002 4.901 3.005 4.901 1.925 0 2.888-1.528 2.888-4.901 0-3.374-.962-4.948-2.888-4.948-1.965 0-3.005 1.574-3.005 4.948Zm22.803 8.14c-1.54 0-1.848-.674-2.811-2.294-.54-.9-2.197-4.182-2.466-4.858-.154-.359-.193-.628.116-.763 1.232-.855 1.579-1.755 1.579-2.745 0-1.169-.424-2.158-1.85-2.158-.422 0-1.04.045-1.347.18V9.67c0 1.844.039 5.397.192 6.926h-3.89c.154-1.439.193-4.587.193-6.926 0 0-.04-6.296-.27-7.646 1.85 0 4.545-.135 5.74-.135 2.118 0 4.93.494 4.93 4.183 0 1.53-.617 2.744-1.657 3.508-.192.18-.192.27 0 .63 1.349 2.338 2.966 4.992 4.43 6.836-.578.135-1.965.36-2.89.36Zm9.823-5.037s.038 3.283.192 4.272h-4.006c.154-.944.193-4.272.193-4.272 0-.63-.154-1.215-.54-2.25-.886-2.113-2.85-6.205-4.545-8.05.655-.09 1.888-.18 2.62-.18 1.54 0 2.002.63 2.388 1.35.308.629 1.617 3.688 2.079 4.992.501-1.44 1.541-4.048 2.003-4.948.386-.673.886-1.394 2.196-1.394.616 0 1.579.045 2.35.18-1.233 1.26-3.506 5.802-4.43 7.871-.462 1.035-.5 1.53-.5 2.428v.001Zm-84.24-4.678c-.886-.314-2.35-.81-2.35-2.068 0-1.26 1.348-1.53 2.273-1.53 2.041 0 3.351 1.08 3.351 1.08v-2.52s-.886-1.348-3.544-1.348c-3.274 0-5.931 1.53-5.931 4.542 0 3.058 1.887 3.778 3.158 4.228 1.156.405 3.004.944 3.004 2.293 0 1.71-1.347 1.755-2.272 1.755-2.311 0-3.89-1.08-3.89-1.08v2.474s.269 1.484 4.082 1.484c2.85 0 6.01-1.26 5.932-4.677-.038-2.609-1.502-3.823-3.813-4.633Z"/><path d="M.385 28.606c.154.135.308.224.463.314.192.091.346.136.461.136.27 0 .463-.09.617-.27a.967.967 0 0 0 .23-.63c.001-.1-.015-.2-.048-.292a.762.762 0 0 0-.144-.247 2.429 2.429 0 0 0-.654-.405c-.192-.09-.385-.224-.5-.27-.116-.09-.27-.179-.386-.315a2.012 2.012 0 0 1-.308-.494 3.21 3.21 0 0 1-.116-.81c0-.27.038-.495.115-.72a1.74 1.74 0 0 1 .346-.584c.155-.18.348-.27.579-.36.23-.09.462-.135.732-.135.27 0 .5.045.77.135.27.09.5.225.732.36l-.423.81-.039-.045c-.192-.09-.385-.18-.5-.27a1.68 1.68 0 0 0-.463-.09c-.23 0-.462.09-.616.225a.835.835 0 0 0-.27.628c0 .226.077.45.23.586.155.135.386.27.695.45.192.089.384.224.5.269.154.09.27.18.386.315.153.135.269.314.307.495.077.18.116.405.116.674 0 .27-.039.495-.116.72a1.74 1.74 0 0 1-.346.584 1.42 1.42 0 0 1-.578.405c-.231.09-.462.135-.693.135-.506-.005-1-.176-1.426-.494l.347-.81Zm8.628-1.035c0 .765-.192 1.35-.616 1.755-.385.404-.925.629-1.58.629-.654 0-1.155-.225-1.54-.629-.385-.405-.578-1.034-.578-1.8v-3.912H5.7v3.957c0 .405.116.765.347.99.23.27.5.36.848.36.384 0 .654-.136.886-.405.192-.27.307-.629.307-1.034l.039-3.913h1.001l-.115 4.002Zm1.81-3.731.925-.317 2.465 4.769-.077-4.633h1.002l-.039 5.982-1.001.314-2.427-4.722.077 4.588h-.963l.039-5.981Zm7.05.763H16.37v-.988h3.929v.989h-1.425l-.039 5.218h-1.001l.038-5.218v-.001Zm3.466.855c.154-.404.347-.72.617-1.035.269-.314.577-.538.924-.674.346-.18.732-.225 1.117-.225.423 0 .808.09 1.155.225.346.18.656.404.886.674.27.315.462.63.578 1.035.154.404.192.81.192 1.26 0 .448-.077.854-.23 1.258-.154.405-.346.72-.616 1.035-.27.314-.578.54-.925.675-.346.18-.732.224-1.117.224s-.77-.09-1.118-.224a3.72 3.72 0 0 1-.923-.674c-.27-.27-.463-.63-.617-1.036a3.522 3.522 0 0 1-.23-1.304c.114-.404.191-.809.307-1.214Zm.963 2.204c.077.27.192.539.385.72.154.224.346.359.578.448.23.09.462.181.732.181.27 0 .5-.045.732-.18.23-.134.423-.27.578-.494.154-.225.27-.45.385-.72.076-.27.115-.585.115-.855 0-.314-.039-.629-.115-.899-.077-.27-.193-.54-.385-.72-.154-.225-.347-.36-.578-.494a1.375 1.375 0 0 0-.732-.18c-.23 0-.462.045-.655.135-.231.09-.423.27-.577.449-.193.18-.309.45-.425.72-.115.269-.154.584-.154.944-.038.36.039.675.116.945Zm6.048-4.048h1.694c.308 0 .578.045.81.135.23.09.422.225.577.36.154.179.27.36.308.585.077.224.115.449.115.718 0 .405-.077.72-.27.99-.192.27-.422.495-.77.63l1.503 2.294-.886.629-1.464-2.384a.44.44 0 0 0-.148-.165.36.36 0 0 0-.198-.06h-.308v2.474H28.31l.039-6.206Zm1.579 2.789c.077 0 .192 0 .269-.045.115-.045.192-.09.27-.135.077-.09.154-.18.23-.315.078-.135.078-.27.078-.495a.928.928 0 0 0-.064-.375.8.8 0 0 0-.206-.3.993.993 0 0 0-.654-.224h-.578v1.843h.654v.045Zm4.699.854-1.772-3.148.886-.586 1.386 2.654 1.426-2.654.886.586-1.81 3.148-.04 2.609h-1.04l.078-2.609Zm6.933-3.643h1.81c.5 0 .886.135 1.194.45.309.314.462.675.462 1.169 0 .405-.077.765-.269.99-.192.269-.385.404-.655.448.308.046.578.226.732.496.192.27.27.584.27.989 0 .495-.154.945-.462 1.215-.309.27-.732.45-1.233.45h-1.926l.077-6.207Zm1.618 5.352c.308 0 .538-.09.732-.225.153-.134.23-.36.23-.63 0-.629-.346-.944-1.078-.944h-.538l-.039 1.8h.693Zm-.077-2.699c.27 0 .5-.09.693-.224.192-.135.27-.36.27-.675 0-.27-.078-.495-.231-.63-.154-.134-.385-.224-.694-.224h-.615v1.753h.577Zm3.698-2.653h2.85v.989h-1.887v1.574h1.849v.945h-1.85v1.71h1.888v.988h-2.889l.039-6.206Zm3.967.27 1.001-.36 1.349 4.857 1.54-4.858.963.36-2.041 5.982h-.925l-1.887-5.981Zm6.085-.27h2.851v.989h-1.848v1.574h1.848v.945h-1.848v1.71h1.887v.988h-2.89v-6.206Zm4.508 0h1.694c.308 0 .578.045.81.135.23.09.422.225.577.36.154.179.27.36.308.585.077.224.115.449.115.718 0 .405-.077.72-.27.99-.191.27-.422.495-.77.63l1.503 2.294-.886.629-1.464-2.384a.44.44 0 0 0-.148-.165.36.36 0 0 0-.198-.06h-.308v2.474H61.32l.039-6.206Zm1.579 2.789c.077 0 .192 0 .27-.045.114-.045.191-.09.27-.135.076-.09.153-.18.23-.315.077-.135.077-.27.077-.495a.924.924 0 0 0-.065-.375.799.799 0 0 0-.204-.3.993.993 0 0 0-.655-.224h-.578v1.843h.654v.045Zm4.275 3.553-.924-.315 2.041-6.027h.925l1.887 6.026-.963.315-.54-1.753h-1.848l-.578 1.754Zm1.541-5.128-.694 2.429h1.31l-.616-2.429Zm6.857 1.844h1.04l-.039 2.834c-.308.134-.617.224-.924.314-.308.09-.578.135-.887.135-.384 0-.77-.09-1.116-.225a3.71 3.71 0 0 1-.925-.673c-.27-.27-.462-.63-.616-1.036a3.52 3.52 0 0 1-.23-1.304c0-.449.076-.854.23-1.259.154-.404.346-.72.615-1.035.27-.314.579-.538.926-.674.346-.18.731-.225 1.116-.225.346 0 .655.045.925.135.308.09.538.18.77.36l-.346.854a2.019 2.019 0 0 0-.656-.27 3.655 3.655 0 0 0-.693-.089c-.23 0-.462.045-.654.135-.23.09-.424.27-.578.449-.192.18-.308.45-.424.72-.115.27-.153.584-.153.944 0 .314.038.63.115.945.077.27.192.539.385.72.153.224.346.358.577.448.23.091.462.18.732.18.27 0 .54-.044.771-.179l.039-2.204Zm2.696-3.058h2.85v.989h-1.85v1.574h1.85v.945h-1.85v1.71h1.888v.988h-2.888v-6.206Zm10.67 5.622c-.232.225-.463.45-.733.54-.27.134-.54.179-.885.179-.347 0-.656-.09-.925-.225-.27-.134-.462-.314-.578-.538a1.484 1.484 0 0 1-.27-.631c-.038-.224-.076-.404-.076-.539 0-.405.115-.765.307-1.125.208-.34.47-.63.771-.854-.154-.225-.27-.404-.308-.585a1.64 1.64 0 0 1-.116-.63c0-.404.116-.719.347-.99.23-.224.54-.358.886-.358.308 0 .616.134.809.359.231.224.347.54.347.9a1.4 1.4 0 0 1-.231.809c-.155.224-.347.449-.617.63l1.117 1.394c.039-.18.077-.36.077-.584 0-.225.039-.45.039-.72h.847c0 .81-.116 1.484-.347 2.069l.77.99-.654.673-.578-.764Zm-1.927-2.474c-.192.18-.308.36-.424.54-.115.18-.153.36-.153.585 0 .314.077.63.269.81a.862.862 0 0 0 .694.314c.154 0 .346-.045.5-.135.154-.09.308-.224.463-.359l-1.349-1.755Zm-.115-1.934c0 .225.115.45.346.72.134-.111.252-.248.347-.404a.794.794 0 0 0 .115-.36c0-.135-.038-.27-.115-.315a.353.353 0 0 0-.122-.102.303.303 0 0 0-.147-.033c-.27 0-.424.18-.424.494Zm7.588-1.214h2.927v.989h-1.926v1.574h1.926v.99h-1.926v2.653h-1.001v-6.206Zm4.314 1.844c.154-.404.346-.72.616-1.035.27-.314.578-.538.925-.674a3.117 3.117 0 0 1 1.116-.225c.424 0 .81.09 1.156.225.347.18.655.404.886.674.27.315.462.63.577 1.035.155.404.193.81.193 1.26 0 .448-.077.854-.231 1.258-.154.405-.346.72-.616 1.035-.269.314-.578.54-.925.675-.346.18-.731.224-1.117.224-.385 0-.77-.09-1.116-.224a3.705 3.705 0 0 1-.925-.674c-.27-.27-.462-.63-.616-1.036a3.51 3.51 0 0 1-.231-1.304c.076-.404.153-.809.308-1.214Zm.963 2.204c.077.27.192.539.384.72.155.224.347.359.579.448.231.09.462.181.731.181.27 0 .501-.045.733-.18.23-.134.423-.27.577-.494.154-.225.269-.45.386-.72a3.26 3.26 0 0 0 .115-.855c0-.314-.038-.629-.115-.899-.078-.27-.193-.54-.386-.72-.154-.225-.347-.36-.577-.494a1.383 1.383 0 0 0-.733-.18c-.23 0-.462.045-.654.135-.232.09-.424.27-.578.449-.193.18-.308.45-.424.72-.115.269-.154.584-.154.944-.039.36 0 .675.116.945Zm5.97-2.204c.154-.404.347-.72.616-1.035.27-.314.578-.538.925-.674a3.127 3.127 0 0 1 1.117-.225c.423 0 .809.09 1.156.225.346.18.654.404.885.674.27.315.462.63.578 1.035.154.404.193.81.193 1.26 0 .448-.077.854-.231 1.258-.147.388-.356.74-.617 1.035-.269.314-.578.54-.925.675-.346.18-.731.224-1.116.224a3.123 3.123 0 0 1-1.117-.224 3.728 3.728 0 0 1-.925-.674c-.27-.27-.462-.63-.616-1.036a3.503 3.503 0 0 1-.231-1.304c.077-.404.154-.809.308-1.214Zm.925 2.204c.077.27.192.539.385.72.154.224.346.359.578.448.23.09.462.181.731.181.27 0 .501-.045.732-.18.231-.134.424-.27.578-.494.154-.225.269-.45.385-.72a3.353 3.353 0 0 0 0-1.754c-.077-.27-.193-.54-.385-.72-.154-.225-.347-.36-.578-.494a1.378 1.378 0 0 0-.732-.18c-.231 0-.462.045-.654.135-.232.09-.424.27-.578.449-.193.18-.309.45-.424.72-.115.269-.154.584-.154.944s.039.675.116.945Zm6.047-4.048h1.733c.424 0 .809.09 1.156.225.346.135.654.359.886.63.231.269.423.584.577.989.116.36.193.81.193 1.26 0 .448-.077.853-.231 1.258-.138.381-.349.72-.617.99-.269.27-.539.494-.885.63-.347.134-.655.224-1.041.224h-1.81l.039-6.206Zm1.579 5.217c.578 0 1.04-.18 1.387-.584.347-.36.539-.9.539-1.575 0-.314-.039-.584-.116-.809-.076-.27-.193-.45-.346-.675-.154-.18-.347-.315-.54-.45a1.9 1.9 0 0 0-.693-.134h-.809l-.038 4.227h.616Z"/></g><defs><clipPath id="a"><path fill="#fff" d="M0 0h119v32H0z"/></clipPath></defs></svg>