<svg width="132" height="32" fill="none" xmlns="http://www.w3.org/2000/svg"><path fill-rule="evenodd" clip-rule="evenodd" d="M78.255 10.382c.25-.469.748-.726 1.395-.726h1.585l-.013 10.923c0 4.165-3.391 5.645-6.296 5.645-1.41 0-2.972-.378-4.17-1.012l-.238-.125.383-.974.27-.667c.294-.723.718-.902 1.442-.685.554.2 1.383.42 2.293.42 1.874 0 2.907-.877 2.907-2.468v-.33l-.263.196c-.68.513-1.538.765-2.624.765-3.179 0-5.4-2.477-5.4-6.02 0-3.549 2.147-5.933 5.336-5.933 1.603 0 2.59.563 3.14 1.037l.159.136.094-.182Zm-5.252 4.853c0 1.517.664 3.136 2.529 3.136 1.07 0 2.347-.524 2.347-3.024 0-2.651-1.443-2.96-2.526-2.96-2.18 0-2.35 2.179-2.35 2.848ZM97.299 17.852c-.01.012-1.415 1.48-3.266 1.48-1.686 0-3.389-1.025-3.389-3.312 0-1.975 1.32-3.355 3.21-3.355.615 0 1.313.218 1.422.584l.016.062c.252.83 1.014.875 1.164.875l1.79.002V12.64c0-2.043-2.625-2.785-4.391-2.785-3.777 0-6.517 2.605-6.517 6.191 0 3.585 2.71 6.185 6.448 6.185 3.242 0 5.006-2.11 5.022-2.132l.094-.114-1.417-2.328-.186.196M82.798 20.127c0-1.093.89-1.979 1.987-1.979 1.1 0 1.993.886 1.993 1.979 0 1.09-.894 1.977-1.993 1.977a1.983 1.983 0 0 1-1.987-1.977M53.416 10.086h-1.621l.011 9.188h-.001v2.693h1.73c.022 0 .04.003.061.003l.806-.003h.803v-.004h.005l.007-10.073c0-1.215-.587-1.804-1.8-1.804M47.527 16.304a2.934 2.934 0 0 0-.475-.662l-.11-.115.116-.11a4.94 4.94 0 0 0 .501-.618l3.201-4.714h-3.886l-2.405 3.687c-.136.198-.412.297-.823.297h-.548V7.1c0-1.394-.877-1.584-1.825-1.584h-1.622l.003 16.454h3.444v-4.936h.322c.393 0 .66.045.783.256l1.9 3.552c.53.963 1.059 1.128 2.054 1.128h2.639l-1.966-3.22-1.303-2.445M64.245 9.815c-1.752 0-2.87.771-3.496 1.423l-.209.21-.074-.286c-.184-.698-.804-1.082-1.737-1.082h-1.544l.01 11.884h3.42v-5.477c0-.536.07-1 .214-1.424.38-1.284 1.442-2.082 2.77-2.082 1.067 0 1.485.558 1.485 2v5.176c0 1.231.574 1.807 1.818 1.807h1.628l-.006-7.558c0-3.003-1.479-4.59-4.278-4.59M127.018 9.854c-1.42 0-2.791.658-3.672 1.762l-.248.31-.194-.347c-.634-1.144-1.724-1.725-3.24-1.725-1.59 0-2.656.878-3.152 1.4l-.324.348-.124-.457c-.181-.658-.773-1.021-1.669-1.021h-1.438l-.014 11.838h3.267v-5.226c0-.457.057-.91.173-1.384.312-1.263 1.169-2.62 2.609-2.485.888.084 1.322.764 1.322 2.077v7.018h3.29v-5.226c0-.572.053-1 .184-1.43.264-1.205 1.159-2.44 2.549-2.44 1.005 0 1.377.563 1.377 2.078v5.287c0 1.196.539 1.73 1.746 1.73h1.537l.003-7.556c0-3.02-1.342-4.551-3.983-4.551M99.531 15.612c0-3.604 2.611-6.221 6.21-6.221 3.607 0 6.232 2.617 6.232 6.22 0 3.604-2.625 6.221-6.232 6.221-3.599 0-6.21-2.617-6.21-6.22Zm3.327 0c0 1.948 1.184 3.312 2.884 3.312 1.735 0 2.904-1.333 2.904-3.312 0-1.948-1.198-3.31-2.904-3.31-1.7 0-2.884 1.362-2.884 3.31ZM25.614 15.612c0-3.604 2.61-6.221 6.21-6.221 3.607 0 6.232 2.617 6.232 6.22 0 3.604-2.625 6.221-6.231 6.221-3.6 0-6.21-2.617-6.21-6.22Zm3.327 0c0 1.948 1.183 3.312 2.883 3.312 1.735 0 2.904-1.333 2.904-3.312 0-1.948-1.198-3.31-2.904-3.31-1.7 0-2.883 1.362-2.883 3.31ZM12.441 15.612c0-3.604 2.611-6.221 6.209-6.221 3.611 0 6.233 2.617 6.233 6.22 0 3.604-2.622 6.221-6.233 6.221-3.598 0-6.209-2.617-6.209-6.22Zm3.327 0c0 1.948 1.181 3.312 2.882 3.312 1.735 0 2.905-1.333 2.905-3.312 0-1.948-1.195-3.31-2.905-3.31-1.7 0-2.882 1.362-2.882 3.31ZM9.721 13.603l-.513-.275.448-.366c.521-.428 1.396-1.389 1.396-3.05 0-2.54-2.067-4.18-5.267-4.18H1.718C.77 5.764.011 6.5 0 7.41v14.421h1.68l.003.001h4.174c3.557 0 5.853-1.847 5.853-4.705 0-1.54-.742-2.855-1.99-3.524h.001Zm-3.629 5.504-2.842-.002v-3.24c0-.691.282-1.051.904-1.134h1.938c1.383 0 2.277.832 2.278 2.177-.001 1.38-.873 2.198-2.278 2.2ZM3.25 9.517v2.723h2.558c1.437 0 1.948-1.06 1.948-1.967 0-1.19-.747-1.902-1.994-1.902H4.308c-.726.046-1.058.4-1.058 1.147ZM51.384 6.977c0-1.093.89-1.977 1.987-1.977 1.1 0 1.994.884 1.994 1.977a1.986 1.986 0 0 1-1.994 1.976 1.983 1.983 0 0 1-1.987-1.976" fill="#000"/></svg>