<svg width="146" height="32" fill="none" xmlns="http://www.w3.org/2000/svg"><path d="M111.784 22.45c-1.192 0-2.135-.309-2.828-.926-.695-.616-1.043-1.593-1.043-3.032V13.66h-1.34v-3.34h1.34V7.338h4.02v2.982h2.679v3.34h-2.679v4.061c0 .411.099.72.297.926.198.205.447.308.844.308.297 0 .496-.052.793-.103l.745-.308v3.238c-.397.205-.794.411-1.241.463a5.632 5.632 0 0 1-1.587.205Zm-64.903 0a10.19 10.19 0 0 1-2.828-.411c-.942-.309-1.787-.72-2.58-1.336l1.489-2.519c.63.403 1.294.747 1.984 1.027a5.34 5.34 0 0 0 1.935.36c.695 0 1.042-.205 1.042-.616 0-.257-.15-.411-.446-.566a5.786 5.786 0 0 0-1.39-.41c-.546-.155-1.092-.36-1.588-.464-.496-.205-.942-.41-1.29-.72-.347-.308-.644-.617-.894-1.079-.247-.41-.346-.925-.346-1.49v-.052c0-.617.1-1.233.346-1.696.25-.462.547-.925.994-1.233.397-.36.893-.566 1.439-.771.545-.206 1.19-.258 1.835-.258.844 0 1.688.104 2.481.36.844.257 1.538.566 2.233 1.029l-1.439 2.518a8.393 8.393 0 0 0-1.835-.822c-.596-.206-1.142-.309-1.589-.309-.347 0-.546.051-.694.155-.149.102-.248.257-.248.41v.052c0 .257.148.411.446.565.348.155.794.309 1.34.463.546.154 1.092.36 1.588.514.496.206.943.411 1.29.72.397.308.645.617.894 1.079.247.412.346.925.346 1.44v.05c0 .669-.099 1.234-.346 1.748-.25.463-.547.926-.944 1.234-.397.36-.893.565-1.488.771-.447.206-1.092.257-1.737.257Zm10.122 0c-1.19 0-2.183-.411-2.878-1.183-.694-.77-1.042-1.85-1.042-3.186V10.37h4.02v6.426c0 .668.148 1.182.446 1.49.298.36.695.463 1.191.463.496 0 .893-.154 1.192-.462.346-.36.445-.823.445-1.491V10.37h4.02v11.822h-4.02v-1.645c-.198.257-.396.463-.595.72a2.588 2.588 0 0 1-.744.565c-.298.206-.596.36-.942.412-.348.05-.696.205-1.093.205Zm41.085-11.205c-.694-.772-1.637-1.131-2.877-1.131-.844 0-1.588.206-2.183.513-.596.36-1.19.823-1.638 1.388-.347-.617-.744-1.079-1.29-1.388-.546-.36-1.191-.462-1.985-.462s-1.587.206-2.183.463c-.595.308-.844.514-1.39.976l-.347.309c-.149-.257-.347-.463-.496-.72-.695-.77-1.638-1.131-2.878-1.131-.843 0-1.588.206-2.184.514-.594.36-1.19.823-1.636 1.388-.348-.617-.745-1.079-1.291-1.388-.545-.36-1.19-.462-1.984-.462s-1.489.206-1.986.565c-.544.411-1.041.822-1.34 1.285V10.32h-4.019V22.14h4.02V15.82c0-.67.149-1.183.446-1.491.299-.36.695-.463 1.191-.463.497 0 .894.154 1.191.463.298.36.397.822.397 1.49v6.425h4.02V15.82c0-.668.149-1.182.446-1.49.347-.361.695-.464 1.191-.464.447 0 .843.155 1.14.463.3.36.398.822.398 1.49v6.426h4.119V15.82c0-.668.148-1.182.446-1.49.348-.361.694-.464 1.191-.464.496 0 .843.155 1.19.463.3.36.398.822.398 1.49v6.426h4.019V15.82c0-.668.149-1.182.447-1.49.347-.361.694-.464 1.19-.464.447 0 .844.155 1.142.463.297.36.397.822.397 1.49v6.426h4.02V14.43c-.2-1.388-.597-2.467-1.292-3.186Zm2.879-.874h4.018v11.822h-4.018V10.37Zm-99.835.514h1.141L5.5 20.599l3.225-9.766h.843l3.226 9.766 3.225-9.715h1.14l-3.87 11.155h-.893L9.17 12.58 5.895 22.04h-.893l-3.87-11.154Zm21.435 11.359a5.089 5.089 0 0 1-1.984-.411 5.337 5.337 0 0 1-1.688-1.182c-.446-.514-.893-1.13-1.14-1.799-.249-.669-.397-1.491-.397-2.364v-.052c0-.771.148-1.543.396-2.21.248-.668.596-1.337 1.092-1.799.447-.514.993-.977 1.588-1.234a4.345 4.345 0 0 1 1.984-.462c.745 0 1.44.154 2.035.41a3.612 3.612 0 0 1 1.538 1.234c.417.544.752 1.15.993 1.8.149.719.298 1.49.298 2.313v.41h-8.883c.05.668.199 1.337.447 1.85.247.515.545 1.029.942 1.389.347.36.844.617 1.29.873.447.206.993.257 1.538.257.844 0 1.539-.153 2.085-.462a5.872 5.872 0 0 0 1.538-1.234l.694.617c-.545.566-1.19 1.131-1.835 1.49-.695.36-1.539.566-2.531.566Zm3.573-6.322a7.546 7.546 0 0 0-.298-1.593 4.514 4.514 0 0 0-.694-1.388c-.298-.36-.695-.668-1.191-.977-.447-.257-.993-.36-1.588-.36-.496 0-1.042.103-1.489.309-.446.205-.893.514-1.19.925-.348.36-.596.873-.894 1.388a6.488 6.488 0 0 0-.397 1.696h7.741Zm8.336 6.323c-.496 0-1.042-.052-1.488-.206-.447-.155-.844-.309-1.192-.566a7.55 7.55 0 0 1-.992-.874c-.298-.308-.546-.617-.744-1.027v2.364h-1.042V6.156h1.042v7.195c.198-.36.446-.668.744-1.079.298-.308.596-.617.993-.874.347-.257.744-.411 1.19-.565.398-.155.943-.206 1.44-.206.595 0 1.29.103 1.885.36a4.691 4.691 0 0 1 1.687 1.13c.447.464.894 1.132 1.192 1.8.297.668.446 1.542.446 2.467v.051c0 .926-.15 1.697-.447 2.467-.298.67-.695 1.337-1.19 1.8-.448.462-1.043.925-1.638 1.182-.645.206-1.24.36-1.886.36Zm-.099-1.08c.546 0 1.141-.103 1.638-.309.496-.205.992-.514 1.34-.976.346-.412.644-.925.893-1.49.198-.566.297-1.235.297-1.954 0-.72-.099-1.388-.348-1.953-.198-.566-.496-1.131-.942-1.49-.298-.463-.744-.772-1.29-1.029a4.167 4.167 0 0 0-1.588-.308c-.546 0-1.092.103-1.638.36a3.646 3.646 0 0 0-1.389.976 7.704 7.704 0 0 0-.993 1.49c-.248.566-.346 1.235-.346 1.902v.052c0 .668.098 1.388.346 1.953.25.566.546 1.08.993 1.491.397.41.894.72 1.39.976.495.258 1.091.309 1.637.309ZM145.132 22.157h-20.044l9.97-17.24 10.074 17.24ZM131.111 10.318l2.285-3.947-2.285-3.843-2.18 3.843 2.18 3.947ZM130.696 11.044l-3.531-6.127-10.019 17.24h7.111l6.439-11.113Z" fill="#000"/></svg>