<svg xmlns="http://www.w3.org/2000/svg" width="76" height="33" fill="none"><path fill="#000" d="M1.023 16.721v-.052c0-4.589 3.511-8.483 8.466-8.483 2.468 0 4.102.591 5.597 1.67.278.208.59.607.59 1.164a1.42 1.42 0 0 1-1.425 1.425c-.382 0-.66-.156-.886-.33-1.06-.765-2.208-1.287-3.98-1.287-3.025 0-5.32 2.66-5.32 5.79v.051c0 3.373 2.225 5.858 5.58 5.858 1.547 0 2.955-.486 3.963-1.234v-3.077h-3.25c-.696 0-1.287-.539-1.287-1.251 0-.696.591-1.27 1.287-1.27h4.571c.817 0 1.46.627 1.46 1.461v4.38c0 .817-.33 1.409-1.008 1.826-1.408.938-3.372 1.79-5.84 1.79-5.128 0-8.518-3.65-8.518-8.43ZM18.98 9.038c0-.782.608-1.408 1.408-1.408.8 0 1.425.626 1.425 1.408v14.55c0 .8-.626 1.408-1.425 1.408a1.391 1.391 0 0 1-1.408-1.408V9.038ZM24.02 18.756v-.053c0-3.546 2.817-6.466 6.606-6.466 3.807 0 6.588 2.886 6.588 6.432v.052c0 3.511-2.816 6.449-6.64 6.449-3.772-.017-6.553-2.903-6.553-6.414Zm10.361 0v-.053c0-2.172-1.564-3.98-3.807-3.98-2.277 0-3.737 1.79-3.737 3.946v.052c0 2.155 1.564 3.963 3.772 3.963 2.312-.017 3.772-1.79 3.772-3.928ZM44.307 25.117h-.14c-.782 0-1.286-.486-1.616-1.251l-4.12-9.457c-.07-.208-.156-.451-.156-.695 0-.695.626-1.356 1.408-1.356.782 0 1.165.452 1.408 1.026l3.181 8.205 3.233-8.257c.209-.487.591-.991 1.339-.991.782 0 1.39.591 1.39 1.356 0 .26-.086.539-.156.678l-4.155 9.49c-.33.731-.851 1.253-1.616 1.253ZM51.243 18.756v-.053c0-3.546 2.816-6.466 6.623-6.466 3.806 0 6.588 2.886 6.588 6.432v.052c0 3.511-2.816 6.449-6.64 6.449-3.773-.017-6.571-2.903-6.571-6.414Zm10.377 0v-.053c0-2.172-1.564-3.98-3.806-3.98-2.278 0-3.738 1.79-3.738 3.946v.052c0 2.155 1.565 3.963 3.772 3.963 2.312-.017 3.772-1.79 3.772-3.928ZM69.2.99a5.586 5.586 0 0 0-5.58 5.58 5.61 5.61 0 0 0 1.043 3.25l.156.21 2.903 4.102s.348.573 1.13.573H69.547c.765 0 1.13-.573 1.13-.573l2.903-4.103.14-.209a5.489 5.489 0 0 0 1.042-3.25C74.78 3.493 72.276.99 69.2.99Zm2.294 7.214-.156.208-2.138 3.025L67.06 8.43l-.156-.226a2.84 2.84 0 0 1-.539-1.652 2.834 2.834 0 0 1 5.667 0 2.8 2.8 0 0 1-.539 1.652ZM67.635 17.208c0-.852.66-1.53 1.547-1.53.887 0 1.547.678 1.547 1.513v.017c0 .834-.66 1.512-1.564 1.512-.87-.017-1.53-.695-1.53-1.512Z"/></svg>