<svg width="118" height="32" fill="none" xmlns="http://www.w3.org/2000/svg"><path fill-rule="evenodd" clip-rule="evenodd" d="M117 9.5a1.501 1.501 0 1 1-3.002-.002A1.501 1.501 0 0 1 117 9.5Zm-1.505-1.18c-.652 0-1.175.52-1.175 1.17 0 .659.523 1.18 1.175 1.18.662 0 1.185-.521 1.185-1.18 0-.65-.523-1.17-1.185-1.17Zm-.139.286c.235 0 .331.01.438.053.298.096.33.362.33.469 0 .02 0 .074-.021.138a.431.431 0 0 1-.227.301.434.434 0 0 1-.05.029l.384.691h-.374l-.341-.638h-.235v.638h-.331v-1.68h.427Zm.148.763-.031.003h-.213v-.49h.096c.16 0 .235 0 .309.033a.239.239 0 0 1 .129.202.225.225 0 0 1-.043.149c-.058.086-.151.095-.247.103ZM48.783 17.759h7.467l-3.948-6.486L45.055 23h-3.298l8.814-14.087A2.07 2.07 0 0 1 52.301 8c.686 0 1.324.332 1.696.89L62.846 23h-3.298l-1.556-2.62h-7.56l-1.65-2.621ZM0 15.577C0 19.68 3.26 23 7.276 23h8.458c4.018 0 7.275-3.32 7.275-7.423s-3.257-7.435-7.275-7.435H7.276C3.26 8.142 0 11.474 0 15.577Zm36.74 2.609c2.718 0 4.924-2.241 4.924-5.016s-2.206-5.028-4.923-5.028H24.498V23h2.797V10.763h9.26c1.3 0 2.346 1.079 2.346 2.407s-1.045 2.407-2.346 2.407l-7.89-.012L37.02 23h4.065l-5.62-4.814h1.277Zm46.3 2.193V8.142H80.24v13.435c0 .368.14.723.407.996.267.273.627.427 1.022.427h12.762l1.649-2.62H83.04Zm-67.494 0c2.602 0 4.71-2.146 4.71-4.802 0-2.656-2.108-4.814-4.71-4.814H7.463c-2.6 0-4.71 2.158-4.71 4.814s2.11 4.803 4.71 4.803h8.083Zm82.834-3.498c.557 2.028 2.38 3.498 4.529 3.498H113L111.351 23h-8.628c-4.018 0-7.281-3.32-7.281-7.423s3.263-7.435 7.281-7.435h10.056l-1.66 2.62h-8.21c-2.149 0-3.972 1.483-4.53 3.499h13.611l-1.649 2.62H98.38Zm-36.974-1.304c0 4.103 3.263 7.423 7.28 7.423h8.629l1.649-2.62H68.873c-2.602 0-4.715-2.147-4.715-4.803s2.113-4.814 4.715-4.814h8.221l1.638-2.62H68.686c-4.018 0-7.281 3.331-7.281 7.434Z" fill="#000"/></svg>