<svg width="48" height="49" fill="none" xmlns="http://www.w3.org/2000/svg"><path fill-rule="evenodd" clip-rule="evenodd" d="M25.562 9.013L20.5 5.091l-5.062 3.922-6.4-.198-1.79 6.148-5.294 3.603L4.12 24.59l-2.166 6.026 5.294 3.602 1.79 6.148 6.4-.197L20.5 44.09l5.062-3.921 6.4.197 1.79-6.148 5.294-3.602-2.166-6.026 2.166-6.026-5.294-3.602-1.79-6.148-6.4.198zm-7.933 22.408c.603.262 1.34.435 2.208.518v2.152h1.368V31.96c.855-.04 1.584-.193 2.187-.455.617-.276 1.115-.614 1.493-1.014.393-.414.673-.87.842-1.366.182-.497.273-1 .273-1.51 0-1.298-.337-2.285-1.01-2.96-.673-.69-1.724-1.187-3.154-1.49l-.631-.125v-3.808c.532.082.932.31 1.198.683.267.358.456.917.568 1.676l2.819-.352a7.26 7.26 0 00-.316-1.407 3.708 3.708 0 00-.757-1.325c-.336-.4-.785-.731-1.346-.993-.56-.276-1.283-.449-2.166-.518v-1.904h-1.367v1.884c-.786.055-1.473.2-2.062.434a4.613 4.613 0 00-1.451.911c-.378.373-.666.8-.862 1.283-.183.47-.274.973-.274 1.511 0 1.352.393 2.373 1.178 3.063.8.677 1.956 1.152 3.47 1.428v3.974c-.63-.11-1.1-.365-1.409-.765-.294-.4-.455-.987-.483-1.76H15a6.94 6.94 0 00.316 1.842c.182.566.462 1.063.84 1.49.393.415.884.76 1.473 1.035zm4.985-2.442c-.253.359-.722.573-1.41.642v-3.746c.688.151 1.157.407 1.41.765.252.36.378.718.378 1.077 0 .483-.126.903-.378 1.262zm-3.639-9.52c.224-.125.512-.208.862-.249v3.54c-.588-.152-1.03-.366-1.325-.642-.28-.29-.42-.697-.42-1.221 0-.18.02-.36.063-.539.056-.179.147-.345.273-.496a1.84 1.84 0 01.547-.394z" fill="#39AC37"/></svg>