<svg width="32" height="33" fill="none" xmlns="http://www.w3.org/2000/svg"><path d="M26.111 8.434h-2.889V5.545H8.778v2.89h-2.89A2.897 2.897 0 003 11.322v1.445c0 3.683 2.773 6.687 6.341 7.135a7.235 7.235 0 005.215 4.276v4.478h-2.89a2.889 2.889 0 00-2.888 2.888h14.444a2.889 2.889 0 00-2.889-2.889h-2.889V24.18a7.235 7.235 0 005.215-4.276C26.227 19.455 29 16.451 29 12.768v-1.445c0-1.589-1.3-2.889-2.889-2.889zM5.89 12.768v-1.445h2.889v5.518c-1.676-.607-2.89-2.196-2.89-4.073zM16 21.434a4.346 4.346 0 01-4.333-4.333V8.434h8.666v8.667A4.346 4.346 0 0116 21.434zm10.111-8.666c0 1.877-1.213 3.466-2.889 4.073v-5.518h2.89v1.445z" fill="#39AC37"/></svg>