<svg width="80" height="56" fill="none" xmlns="http://www.w3.org/2000/svg"><path d="M64.929 15.632a6.548 6.548 0 00-4.583-4.628C56.276 9.879 40 9.879 40 9.879s-16.277 0-20.346 1.081c-2.184.606-3.983 2.423-4.583 4.672C14 19.742 14 28.262 14 28.262s0 8.565 1.07 12.63a6.548 6.548 0 004.584 4.63C23.766 46.645 40 46.645 40 46.645s16.277 0 20.346-1.082a6.548 6.548 0 004.583-4.628c1.07-4.11 1.07-12.63 1.07-12.63s.044-8.565-1.07-12.674z" fill="red"/><path d="M34.817 36.135l13.535-7.873-13.535-7.872v15.745z" fill="#fff"/></svg>