<svg width="80" height="56" fill="none" xmlns="http://www.w3.org/2000/svg"><path d="M45.3 0H23.792c-2.072 0-3.786 1.721-3.786 3.8v48.4c0 2.08 1.714 3.8 3.786 3.8H56.66c2.072 0 3.787-1.72 3.787-3.8V15.273L45.3 0z" fill="#FFB800"/><path d="M46.444 14.197l14.004 14.197V15.273l-14.004-1.076z" fill="url(#paint0_linear)"/><path d="M45.301 11.473c0 2.079 1.715 3.8 3.858 3.8h11.29L45.3 0v11.473z" fill="#FFDB75"/><path d="M23.795 0c-2.215 0-3.93 1.936-3.787 4.159 0-2.08 1.715-3.8 3.787-3.8h21.506V0H23.795z" fill="#fff" fill-opacity=".2"/><path d="M56.661 55.641H23.795c-2.072 0-3.787-1.72-3.787-3.8C19.865 53.992 21.58 56 23.795 56h32.866c2.215 0 3.93-1.936 3.787-4.159 0 2.08-1.715 3.8-3.787 3.8zM49.088 15.272c-2.072 0-3.787-1.72-3.787-3.8-.142 2.223 1.572 4.159 3.787 4.159h11.36v-.359h-11.36z" fill="#D79400"/><path d="M48.445 25.67H32.013c-1.072 0-1.93.86-1.93 1.936v16.778c0 1.076.858 1.936 1.93 1.936h16.361c1.072 0 1.93-.86 1.93-1.936V27.606c0-1.076-.858-1.936-1.859-1.936zm-.5 14.77H32.441v-8.89h15.504v8.89z" fill="#fff"/><defs><linearGradient id="paint0_linear" x1="53.447" y1="15.406" x2="53.447" y2="28.362" gradientUnits="userSpaceOnUse"><stop stop-color="#D79400" stop-opacity=".4"/><stop offset="1" stop-color="#D79400" stop-opacity=".02"/></linearGradient></defs></svg>