<svg width="32" height="33" fill="none" xmlns="http://www.w3.org/2000/svg"><path d="M14.27 27.607v-3.892h-3.892a2.595 2.595 0 01-2.594-2.595V10.742a2.594 2.594 0 012.594-2.595h15.568a2.595 2.595 0 012.595 2.595V21.12a2.595 2.595 0 01-2.595 2.595h-4.022l-4.8 4.813c-.26.247-.583.376-.908.376h-.648c-.717 0-1.298-.58-1.298-1.297zm2.595-2.49l3.995-3.997h5.086V10.742H10.378V21.12h6.487v3.996zM3.892 18.525c-.717 0-1.297-.581-1.297-1.297V5.553a2.595 2.595 0 012.594-2.595h16.865a1.297 1.297 0 010 2.595H6.486c-.716 0-1.297.58-1.297 1.297V17.23c0 .716-.58 1.297-1.297 1.297z" fill="#39AC37"/></svg>