<svg width="48" height="49" fill="none" xmlns="http://www.w3.org/2000/svg"><g clip-path="url(#clip0)" fill="#39AC37"><path d="M4.713 33.293a2 2 0 012.69.756l5.239 9.074a2 2 0 01-.732 2.732l-1.207.697a2 2 0 01-2.741-.748l-5.174-9.148a2 2 0 01.783-2.74l1.142-.623zm14.46 8.517l6.918-3.994c.223-.129.494-.434.717-.562l8.086.092c.975-.117 1.739-.855 1.845-1.958-.116-.975-.854-1.738-1.781-1.798l-7.735.002 9.58-1.96c.974-.116 1.609-1.078 1.493-2.052-.117-.974-1.078-1.61-2.053-1.493l-7.137 1.294 7.54-4.204c.893-.516 1.176-1.572.66-2.465-.515-.892-1.747-1.222-2.464-.66l-8.256 4.767-.198-1.373-.186-2.125-1.568-4.004s-1.382-1.88-2.215-2.291c-.657-.365-5.13.134-5.13.134-.622.211-1.291.598-1.48 1.302-.283 1.055.233 1.948 1.289 2.231.176.047.352.094.575-.035l3.275-.254 1.194 2.584c-.236.88-.883 2.593-1.12 3.473-5.672 3.573-6.077-1.252-6.077-1.252l-.333-6.503-.082-.399c-.257-.446-.738-.763-1.266-.905l-1.936-.519-2.138 11.5c-.19.704-.155 1.28.232 1.949l5.927 10.265c.773 1.339 2.533 1.81 3.824 1.213z"/><rect x="10.447" y="3.529" width="3.403" height="7.94" rx="1.701" transform="rotate(-13.63 10.447 3.53)"/><rect x="19.936" y="2.874" width="3.403" height="7.94" rx="1.701" transform="rotate(18.107 19.936 2.874)"/><rect x="2" y="8.681" width="3.403" height="7.94" rx="1.701" transform="rotate(-44.732 2 8.68)"/></g><defs><clipPath id="clip0"><path fill="#fff" transform="translate(0 .364)" d="M0 0h48v48H0z"/></clipPath></defs></svg>