<svg width="48" height="49" fill="none" xmlns="http://www.w3.org/2000/svg"><path d="M28.763 21.885c1.684 0 3.256.45 4.716 1.123.224-.898.337-1.909.337-2.807 0-7.41-7.635-13.473-16.842-13.473C7.767 6.728.132 12.79.132 20.2c0 3.593 1.796 6.85 4.603 9.32 0 1.01-.674 3.593-4.603 7.522 0 0 5.95 0 10.89-4.266 1.91.561 3.818.898 5.952.898l1.796-.112-.112-1.572c0-5.614 4.603-10.106 10.105-10.106zm-19.424.54h-2.47v-2.582H9.45v2.583h-.112zm0-4.817h-2.47v-2.47H9.45v2.47h-.112zm2.582-2.47h12.597v2.583H11.92v-2.583zm0 7.288v-2.583h8.105v2.583h-8.105z" fill="#39AC37"/><path d="M30.447 30.306v-5.052H27.08v5.052h-5.053v3.369h5.053v5.053h3.368v-5.053H35.5v-3.368h-5.053z" fill="#39AC37"/></svg>