<svg width="80" height="56" fill="none" xmlns="http://www.w3.org/2000/svg"><path d="M27.792 51.604c-12.165 0-16.305-15.376-17.232-18.368-2.33-7.51-3.038-14.277-3.113-14.987-.433-4.097 2.855-6.948 6.463-6.948 2.732 0 5.903 1.634 6.323 5.6.073.668.629 6.42 2.593 12.69 2.051 6.542 4.227 9.058 5.793 9.058 2.53 0 4.074-6.495 5.438-12.678 1.005-4.556 2.092-9.147 4.238-13.225C42.028 5.65 47.668 4 52.54 4 63.226 4 68.573 16.373 68.573 19.58c0 5.357-4.371 6.724-6.266 6.724-4.144 0-5.55-2.776-6.732-5.208-1.063-2.189-2.174-4.009-3.61-4.009-.472 0-.91.24-1.314.65-3.57 3.627-4.767 22.598-11.904 29.848-3.957 4.02-8.262 4.02-10.955 4.02z" fill="url(#a)"/><path d="M27.792 51.604c-12.165 0-16.305-15.376-17.232-18.368-2.33-7.51-3.038-14.277-3.113-14.987-.433-4.097 2.855-6.948 6.463-6.948 2.732 0 5.903 1.634 6.323 5.6.073.668.629 6.42 2.593 12.69 2.051 6.542 4.227 9.058 5.793 9.058 2.53 0 4.074-6.495 5.438-12.678 1.005-4.556 2.092-9.147 4.238-13.225C42.028 5.65 47.668 4 52.54 4 63.226 4 68.573 16.373 68.573 19.58c0 5.357-4.371 6.724-6.266 6.724-4.144 0-5.55-2.776-6.732-5.208-1.063-2.189-2.174-4.009-3.61-4.009-.472 0-.91.24-1.314.65-3.57 3.627-4.767 22.598-11.904 29.848-3.957 4.02-8.262 4.02-10.955 4.02z" fill="url(#b)"/><path d="M27.792 51.604c-12.165 0-16.305-15.376-17.232-18.368-2.33-7.51-3.038-14.277-3.113-14.987-.433-4.097 2.855-6.948 6.463-6.948 2.732 0 5.903 1.634 6.323 5.6.073.668.629 6.42 2.593 12.69 2.051 6.542 4.227 9.058 5.793 9.058 2.53 0 4.074-6.495 5.438-12.678 1.005-4.556 2.092-9.147 4.238-13.225C42.028 5.65 47.668 4 52.54 4 63.226 4 68.573 16.373 68.573 19.58c0 5.357-4.371 6.724-6.266 6.724-4.144 0-5.55-2.776-6.732-5.208-1.063-2.189-2.174-4.009-3.61-4.009-.472 0-.91.24-1.314.65-3.57 3.627-4.767 22.598-11.904 29.848-3.957 4.02-8.262 4.02-10.955 4.02z" fill="url(#c)"/><path d="M27.792 51.604c-12.165 0-16.305-15.376-17.232-18.368-2.33-7.51-3.038-14.277-3.113-14.987-.433-4.097 2.855-6.948 6.463-6.948 2.732 0 5.903 1.634 6.323 5.6.073.668.629 6.42 2.593 12.69 2.051 6.542 4.227 9.058 5.793 9.058 2.53 0 4.074-6.495 5.438-12.678 1.005-4.556 2.092-9.147 4.238-13.225C42.028 5.65 47.668 4 52.54 4 63.226 4 68.573 16.373 68.573 19.58c0 5.357-4.371 6.724-6.266 6.724-4.144 0-5.55-2.776-6.732-5.208-1.063-2.189-2.174-4.009-3.61-4.009-.472 0-.91.24-1.314.65-3.57 3.627-4.767 22.598-11.904 29.848-3.957 4.02-8.262 4.02-10.955 4.02z" fill="url(#d)"/><path d="M27.792 51.604c-12.165 0-16.305-15.376-17.232-18.368-2.33-7.51-3.038-14.277-3.113-14.987-.433-4.097 2.855-6.948 6.463-6.948 2.732 0 5.903 1.634 6.323 5.6.073.668.629 6.42 2.593 12.69 2.051 6.542 4.227 9.058 5.793 9.058 2.53 0 4.074-6.495 5.438-12.678 1.005-4.556 2.092-9.147 4.238-13.225C42.028 5.65 47.668 4 52.54 4 63.226 4 68.573 16.373 68.573 19.58c0 5.357-4.371 6.724-6.266 6.724-4.144 0-5.55-2.776-6.732-5.208-1.063-2.189-2.174-4.009-3.61-4.009-.472 0-.91.24-1.314.65-3.57 3.627-4.767 22.598-11.904 29.848-3.957 4.02-8.262 4.02-10.955 4.02z" fill="url(#e)"/><path d="M27.792 51.604c-12.165 0-16.305-15.376-17.232-18.368-2.33-7.51-3.038-14.277-3.113-14.987-.433-4.097 2.855-6.948 6.463-6.948 2.732 0 5.903 1.634 6.323 5.6.073.668.629 6.42 2.593 12.69 2.051 6.542 4.227 9.058 5.793 9.058 2.53 0 4.074-6.495 5.438-12.678 1.005-4.556 2.092-9.147 4.238-13.225C42.028 5.65 47.668 4 52.54 4 63.226 4 68.573 16.373 68.573 19.58c0 5.357-4.371 6.724-6.266 6.724-4.144 0-5.55-2.776-6.732-5.208-1.063-2.189-2.174-4.009-3.61-4.009-.472 0-.91.24-1.314.65-3.57 3.627-4.767 22.598-11.904 29.848-3.957 4.02-8.262 4.02-10.955 4.02z" fill="url(#f)"/><path d="M27.792 51.604c-12.165 0-16.305-15.376-17.232-18.368-2.33-7.51-3.038-14.277-3.113-14.987-.433-4.097 2.855-6.948 6.463-6.948 2.732 0 5.903 1.634 6.323 5.6.073.668.629 6.42 2.593 12.69 2.051 6.542 4.227 9.058 5.793 9.058 2.53 0 4.074-6.495 5.438-12.678 1.005-4.556 2.092-9.147 4.238-13.225C42.028 5.65 47.668 4 52.54 4 63.226 4 68.573 16.373 68.573 19.58c0 5.357-4.371 6.724-6.266 6.724-4.144 0-5.55-2.776-6.732-5.208-1.063-2.189-2.174-4.009-3.61-4.009-.472 0-.91.24-1.314.65-3.57 3.627-4.767 22.598-11.904 29.848-3.957 4.02-8.262 4.02-10.955 4.02z" fill="url(#g)"/><path d="M27.792 51.604c-12.165 0-16.305-15.376-17.232-18.368-2.33-7.51-3.038-14.277-3.113-14.987-.433-4.097 2.855-6.948 6.463-6.948 2.732 0 5.903 1.634 6.323 5.6.073.668.629 6.42 2.593 12.69 2.051 6.542 4.227 9.058 5.793 9.058 2.53 0 4.074-6.495 5.438-12.678 1.005-4.556 2.092-9.147 4.238-13.225C42.028 5.65 47.668 4 52.54 4 63.226 4 68.573 16.373 68.573 19.58c0 5.357-4.371 6.724-6.266 6.724-4.144 0-5.55-2.776-6.732-5.208-1.063-2.189-2.174-4.009-3.61-4.009-.472 0-.91.24-1.314.65-3.57 3.627-4.767 22.598-11.904 29.848-3.957 4.02-8.262 4.02-10.955 4.02z" fill="url(#h)"/><path d="M27.792 51.604c-12.165 0-16.305-15.376-17.232-18.368-2.33-7.51-3.038-14.277-3.113-14.987-.433-4.097 2.855-6.948 6.463-6.948 2.732 0 5.903 1.634 6.323 5.6.073.668.629 6.42 2.593 12.69 2.051 6.542 4.227 9.058 5.793 9.058 2.53 0 4.074-6.495 5.438-12.678 1.005-4.556 2.092-9.147 4.238-13.225C42.028 5.65 47.668 4 52.54 4 63.226 4 68.573 16.373 68.573 19.58c0 5.357-4.371 6.724-6.266 6.724-4.144 0-5.55-2.776-6.732-5.208-1.063-2.189-2.174-4.009-3.61-4.009-.472 0-.91.24-1.314.65-3.57 3.627-4.767 22.598-11.904 29.848-3.957 4.02-8.262 4.02-10.955 4.02z" fill="url(#i)"/><path d="M52.54 4c-4.872 0-10.512 1.65-14.245 8.745-2.146 4.079-3.233 8.67-4.238 13.225-.33 1.5-.672 3.017-1.035 4.456v20.613c1.843-.521 3.824-1.525 5.725-3.455 7.137-7.25 8.334-26.222 11.904-29.848.404-.41.842-.65 1.314-.65 1.436 0 2.547 1.82 3.61 4.009 1.183 2.432 2.588 5.208 6.732 5.208 1.895 0 6.266-1.367 6.266-6.724C68.573 16.373 63.226 4 52.541 4z" fill="url(#j)"/><path d="M27.792 51.604c-12.165 0-16.305-15.376-17.232-18.368-2.33-7.51-3.038-14.277-3.113-14.987-.433-4.097 2.855-6.948 6.463-6.948 2.732 0 5.903 1.634 6.323 5.6.073.668.629 6.42 2.593 12.69 2.051 6.542 4.227 9.058 5.793 9.058 2.53 0 4.074-6.495 5.438-12.678 1.005-4.556 2.092-9.147 4.238-13.225C42.028 5.65 47.668 4 52.54 4 63.226 4 68.573 16.373 68.573 19.58c0 5.357-4.371 6.724-6.266 6.724-4.144 0-5.55-2.776-6.732-5.208-1.063-2.189-2.174-4.009-3.61-4.009-.472 0-.91.24-1.314.65-3.57 3.627-4.767 22.598-11.904 29.848-3.957 4.02-8.262 4.02-10.955 4.02z" fill="url(#k)"/><path d="M27.792 51.604c-12.165 0-16.305-15.376-17.232-18.368-2.33-7.51-3.038-14.277-3.113-14.987-.433-4.097 2.855-6.948 6.463-6.948 2.732 0 5.903 1.634 6.323 5.6.073.668.629 6.42 2.593 12.69 2.051 6.542 4.227 9.058 5.793 9.058 2.53 0 4.074-6.495 5.438-12.678 1.005-4.556 2.092-9.147 4.238-13.225C42.028 5.65 47.668 4 52.54 4 63.226 4 68.573 16.373 68.573 19.58c0 5.357-4.371 6.724-6.266 6.724-4.144 0-5.55-2.776-6.732-5.208-1.063-2.189-2.174-4.009-3.61-4.009-.472 0-.91.24-1.314.65-3.57 3.627-4.767 22.598-11.904 29.848-3.957 4.02-8.262 4.02-10.955 4.02z" fill="url(#l)"/><path d="M27.792 51.604c-12.165 0-16.305-15.376-17.232-18.368-2.33-7.51-3.038-14.277-3.113-14.987-.433-4.097 2.855-6.948 6.463-6.948 2.732 0 5.903 1.634 6.323 5.6.073.668.629 6.42 2.593 12.69 2.051 6.542 4.227 9.058 5.793 9.058 2.53 0 4.074-6.495 5.438-12.678 1.005-4.556 2.092-9.147 4.238-13.225C42.028 5.65 47.668 4 52.54 4 63.226 4 68.573 16.373 68.573 19.58c0 5.357-4.371 6.724-6.266 6.724-4.144 0-5.55-2.776-6.732-5.208-1.063-2.189-2.174-4.009-3.61-4.009-.472 0-.91.24-1.314.65-3.57 3.627-4.767 22.598-11.904 29.848-3.957 4.02-8.262 4.02-10.955 4.02z" fill="url(#m)"/><path d="M27.792 51.604c-12.165 0-16.305-15.376-17.232-18.368-2.33-7.51-3.038-14.277-3.113-14.987-.433-4.097 2.855-6.948 6.463-6.948 2.732 0 5.903 1.634 6.323 5.6.073.668.629 6.42 2.593 12.69 2.051 6.542 4.227 9.058 5.793 9.058 2.53 0 4.074-6.495 5.438-12.678 1.005-4.556 2.092-9.147 4.238-13.225C42.028 5.65 47.668 4 52.54 4 63.226 4 68.573 16.373 68.573 19.58c0 5.357-4.371 6.724-6.266 6.724-4.144 0-5.55-2.776-6.732-5.208-1.063-2.189-2.174-4.009-3.61-4.009-.472 0-.91.24-1.314.65-3.57 3.627-4.767 22.598-11.904 29.848-3.957 4.02-8.262 4.02-10.955 4.02z" fill="url(#n)"/><path d="M27.792 51.604c-12.165 0-16.305-15.376-17.232-18.368-2.33-7.51-3.038-14.277-3.113-14.987-.433-4.097 2.855-6.948 6.463-6.948 2.732 0 5.903 1.634 6.323 5.6.073.668.629 6.42 2.593 12.69 2.051 6.542 4.227 9.058 5.793 9.058 2.53 0 4.074-6.495 5.438-12.678 1.005-4.556 2.092-9.147 4.238-13.225C42.028 5.65 47.668 4 52.54 4 63.226 4 68.573 16.373 68.573 19.58c0 5.357-4.371 6.724-6.266 6.724-4.144 0-5.55-2.776-6.732-5.208-1.063-2.189-2.174-4.009-3.61-4.009-.472 0-.91.24-1.314.65-3.57 3.627-4.767 22.598-11.904 29.848-3.957 4.02-8.262 4.02-10.955 4.02z" fill="url(#o)"/><path d="M66.602 11.3c-.481 0-.966.046-1.441.14 2.259 3.255 3.389 6.665 3.389 8.138 0 5.358-4.372 6.724-6.267 6.724-1.478 0-2.608-.353-3.504-.918l-.025.1c-.266 1.063-.476 2.227-.84 3.36-.7 2.177-1.643 4.664-2.65 6.588-1.087 2.075-2.162 3.29-3.444 3.226-1.457-.073-2.64-1.95-4.108-7.258-.474-1.711-.912-3.587-1.319-5.43-1.008-4.569-2.246-9.164-4.362-13.224C38.575 6.114 32.68 4 27.971 4c-4.365 0-7.626 2.066-10.188 4.668-.708.72-1.482 1.689-2.259 2.828 2.235.538 4.348 2.219 4.685 5.405.067.608.533 5.433 2.1 11.024.45-1.402 1.105-3.478 2.628-6.83.746-1.536 1.42-2.548 2.027-3.165.558-.567 1.06-.8 1.511-.8.488 0 2.152.445 3.771 6.127 2.01 7.045 3.505 18.258 9.2 24.21 2.513 2.627 6.03 4.326 10.902 4.326 4.275 0 7.84-1.882 10.382-4.5 4.178-4.305 6.468-11.423 7.285-14.057 2.324-7.493 2.975-14.27 3.05-14.987.433-4.097-3.02-6.948-6.463-6.948z" fill="#316AFF"/><path d="M66.602 11.3c-.481 0-.966.046-1.441.14 2.259 3.255 3.389 6.665 3.389 8.138 0 5.358-4.372 6.724-6.267 6.724-1.478 0-2.608-.353-3.504-.918l-.025.1c-.266 1.063-.476 2.227-.84 3.36-.7 2.177-1.643 4.664-2.65 6.588-1.087 2.075-2.162 3.29-3.444 3.226-1.457-.073-2.64-1.95-4.108-7.258-.474-1.711-.912-3.587-1.319-5.43-1.008-4.569-2.246-9.164-4.362-13.224C38.575 6.114 32.68 4 27.971 4c-4.365 0-7.626 2.066-10.188 4.668-.708.72-1.482 1.689-2.259 2.828 2.235.538 4.348 2.219 4.685 5.405.067.608.533 5.433 2.1 11.024.45-1.402 1.105-3.478 2.628-6.83.746-1.536 1.42-2.548 2.027-3.165.558-.567 1.06-.8 1.511-.8.488 0 2.152.445 3.771 6.127 2.01 7.045 3.505 18.258 9.2 24.21 2.513 2.627 6.03 4.326 10.902 4.326 4.275 0 7.84-1.882 10.382-4.5 4.178-4.305 6.468-11.423 7.285-14.057 2.324-7.493 2.975-14.27 3.05-14.987.433-4.097-3.02-6.948-6.463-6.948z" fill="url(#p)"/><path d="M66.602 11.3c-.481 0-.966.046-1.441.14 2.259 3.255 3.389 6.665 3.389 8.138 0 5.358-4.372 6.724-6.267 6.724-1.478 0-2.608-.353-3.504-.918l-.025.1c-.266 1.063-.476 2.227-.84 3.36-.7 2.177-1.643 4.664-2.65 6.588-1.087 2.075-2.162 3.29-3.444 3.226-1.457-.073-2.64-1.95-4.108-7.258-.474-1.711-.912-3.587-1.319-5.43-1.008-4.569-2.246-9.164-4.362-13.224C38.575 6.114 32.68 4 27.971 4c-4.365 0-7.626 2.066-10.188 4.668-.708.72-1.482 1.689-2.259 2.828 2.235.538 4.348 2.219 4.685 5.405.067.608.533 5.433 2.1 11.024.45-1.402 1.105-3.478 2.628-6.83.746-1.536 1.42-2.548 2.027-3.165.558-.567 1.06-.8 1.511-.8.488 0 2.152.445 3.771 6.127 2.01 7.045 3.505 18.258 9.2 24.21 2.513 2.627 6.03 4.326 10.902 4.326 4.275 0 7.84-1.882 10.382-4.5 4.178-4.305 6.468-11.423 7.285-14.057 2.324-7.493 2.975-14.27 3.05-14.987.433-4.097-3.02-6.948-6.463-6.948z" fill="url(#q)"/><path d="M66.602 11.3c-.481 0-.966.046-1.441.14 2.259 3.255 3.389 6.665 3.389 8.138 0 5.358-4.372 6.724-6.267 6.724-1.478 0-2.608-.353-3.504-.918l-.025.1c-.266 1.063-.476 2.227-.84 3.36-.7 2.177-1.643 4.664-2.65 6.588-1.087 2.075-2.162 3.29-3.444 3.226-1.457-.073-2.64-1.95-4.108-7.258-.474-1.711-.912-3.587-1.319-5.43-1.008-4.569-2.246-9.164-4.362-13.224C38.575 6.114 32.68 4 27.971 4c-4.365 0-7.626 2.066-10.188 4.668-.708.72-1.482 1.689-2.259 2.828 2.235.538 4.348 2.219 4.685 5.405.067.608.533 5.433 2.1 11.024.45-1.402 1.105-3.478 2.628-6.83.746-1.536 1.42-2.548 2.027-3.165.558-.567 1.06-.8 1.511-.8.488 0 2.152.445 3.771 6.127 2.01 7.045 3.505 18.258 9.2 24.21 2.513 2.627 6.03 4.326 10.902 4.326 4.275 0 7.84-1.882 10.382-4.5 4.178-4.305 6.468-11.423 7.285-14.057 2.324-7.493 2.975-14.27 3.05-14.987.433-4.097-3.02-6.948-6.463-6.948z" fill="url(#r)"/><path d="M66.602 11.3c-.481 0-.966.046-1.441.14 2.259 3.255 3.389 6.665 3.389 8.138 0 5.358-4.372 6.724-6.267 6.724-1.478 0-2.608-.353-3.504-.918l-.025.1c-.266 1.063-.476 2.227-.84 3.36-.7 2.177-1.643 4.664-2.65 6.588-1.087 2.075-2.162 3.29-3.444 3.226-1.457-.073-2.64-1.95-4.108-7.258-.474-1.711-.912-3.587-1.319-5.43-1.008-4.569-2.246-9.164-4.362-13.224C38.575 6.114 32.68 4 27.971 4c-4.365 0-7.626 2.066-10.188 4.668-.708.72-1.482 1.689-2.259 2.828 2.235.538 4.348 2.219 4.685 5.405.067.608.533 5.433 2.1 11.024.45-1.402 1.105-3.478 2.628-6.83.746-1.536 1.42-2.548 2.027-3.165.558-.567 1.06-.8 1.511-.8.488 0 2.152.445 3.771 6.127 2.01 7.045 3.505 18.258 9.2 24.21 2.513 2.627 6.03 4.326 10.902 4.326 4.275 0 7.84-1.882 10.382-4.5 4.178-4.305 6.468-11.423 7.285-14.057 2.324-7.493 2.975-14.27 3.05-14.987.433-4.097-3.02-6.948-6.463-6.948z" fill="url(#s)"/><path d="M66.602 11.3c-.481 0-.966.046-1.441.14 2.259 3.255 3.389 6.665 3.389 8.138 0 5.358-4.372 6.724-6.267 6.724-1.478 0-2.608-.353-3.504-.918l-.025.1c-.266 1.063-.476 2.227-.84 3.36-.7 2.177-1.643 4.664-2.65 6.588-1.087 2.075-2.162 3.29-3.444 3.226-1.457-.073-2.64-1.95-4.108-7.258-.474-1.711-.912-3.587-1.319-5.43-1.008-4.569-2.246-9.164-4.362-13.224C38.575 6.114 32.68 4 27.971 4c-4.365 0-7.626 2.066-10.188 4.668-.708.72-1.482 1.689-2.259 2.828 2.235.538 4.348 2.219 4.685 5.405.067.608.533 5.433 2.1 11.024.45-1.402 1.105-3.478 2.628-6.83.746-1.536 1.42-2.548 2.027-3.165.558-.567 1.06-.8 1.511-.8.488 0 2.152.445 3.771 6.127 2.01 7.045 3.505 18.258 9.2 24.21 2.513 2.627 6.03 4.326 10.902 4.326 4.275 0 7.84-1.882 10.382-4.5 4.178-4.305 6.468-11.423 7.285-14.057 2.324-7.493 2.975-14.27 3.05-14.987.433-4.097-3.02-6.948-6.463-6.948z" fill="url(#t)"/><path d="M66.602 11.3c-.481 0-.966.046-1.441.14 2.259 3.255 3.389 6.665 3.389 8.138 0 5.358-4.372 6.724-6.267 6.724-1.478 0-2.608-.353-3.504-.918l-.025.1c-.266 1.063-.476 2.227-.84 3.36-.7 2.177-1.643 4.664-2.65 6.588-1.087 2.075-2.162 3.29-3.444 3.226-1.457-.073-2.64-1.95-4.108-7.258-.474-1.711-.912-3.587-1.319-5.43-1.008-4.569-2.246-9.164-4.362-13.224C38.575 6.114 32.68 4 27.971 4c-4.365 0-7.626 2.066-10.188 4.668-.708.72-1.482 1.689-2.259 2.828 2.235.538 4.348 2.219 4.685 5.405.067.608.533 5.433 2.1 11.024.45-1.402 1.105-3.478 2.628-6.83.746-1.536 1.42-2.548 2.027-3.165.558-.567 1.06-.8 1.511-.8.488 0 2.152.445 3.771 6.127 2.01 7.045 3.505 18.258 9.2 24.21 2.513 2.627 6.03 4.326 10.902 4.326 4.275 0 7.84-1.882 10.382-4.5 4.178-4.305 6.468-11.423 7.285-14.057 2.324-7.493 2.975-14.27 3.05-14.987.433-4.097-3.02-6.948-6.463-6.948z" fill="url(#u)"/><path d="M66.602 11.3c-.481 0-.966.046-1.441.14 2.259 3.255 3.389 6.665 3.389 8.138 0 5.358-4.372 6.724-6.267 6.724-1.478 0-2.608-.353-3.504-.918l-.025.1c-.266 1.063-.476 2.227-.84 3.36-.7 2.177-1.643 4.664-2.65 6.588-1.087 2.075-2.162 3.29-3.444 3.226-1.457-.073-2.64-1.95-4.108-7.258-.474-1.711-.912-3.587-1.319-5.43-1.008-4.569-2.246-9.164-4.362-13.224C38.575 6.114 32.68 4 27.971 4c-4.365 0-7.626 2.066-10.188 4.668-.708.72-1.482 1.689-2.259 2.828 2.235.538 4.348 2.219 4.685 5.405.067.608.533 5.433 2.1 11.024.45-1.402 1.105-3.478 2.628-6.83.746-1.536 1.42-2.548 2.027-3.165.558-.567 1.06-.8 1.511-.8.488 0 2.152.445 3.771 6.127 2.01 7.045 3.505 18.258 9.2 24.21 2.513 2.627 6.03 4.326 10.902 4.326 4.275 0 7.84-1.882 10.382-4.5 4.178-4.305 6.468-11.423 7.285-14.057 2.324-7.493 2.975-14.27 3.05-14.987.433-4.097-3.02-6.948-6.463-6.948z" fill="url(#v)"/><path d="M66.602 11.3c-.481 0-.966.046-1.441.14 2.259 3.255 3.389 6.665 3.389 8.138 0 5.358-4.372 6.724-6.267 6.724-1.478 0-2.608-.353-3.504-.918l-.025.1c-.266 1.063-.476 2.227-.84 3.36-.7 2.177-1.643 4.664-2.65 6.588-1.087 2.075-2.162 3.29-3.444 3.226-1.457-.073-2.64-1.95-4.108-7.258-.474-1.711-.912-3.587-1.319-5.43-1.008-4.569-2.246-9.164-4.362-13.224C38.575 6.114 32.68 4 27.971 4c-4.365 0-7.626 2.066-10.188 4.668-.708.72-1.482 1.689-2.259 2.828 2.235.538 4.348 2.219 4.685 5.405.067.608.533 5.433 2.1 11.024.45-1.402 1.105-3.478 2.628-6.83.746-1.536 1.42-2.548 2.027-3.165.558-.567 1.06-.8 1.511-.8.488 0 2.152.445 3.771 6.127 2.01 7.045 3.505 18.258 9.2 24.21 2.513 2.627 6.03 4.326 10.902 4.326 4.275 0 7.84-1.882 10.382-4.5 4.178-4.305 6.468-11.423 7.285-14.057 2.324-7.493 2.975-14.27 3.05-14.987.433-4.097-3.02-6.948-6.463-6.948z" fill="url(#w)"/><path d="M66.602 11.3c-.481 0-.966.046-1.441.14 2.259 3.255 3.389 6.665 3.389 8.138 0 5.358-4.372 6.724-6.267 6.724-1.478 0-2.608-.353-3.504-.918l-.025.1c-.266 1.063-.476 2.227-.84 3.36-.7 2.177-1.643 4.664-2.65 6.588-1.087 2.075-2.162 3.29-3.444 3.226-1.457-.073-2.64-1.95-4.108-7.258-.474-1.711-.912-3.587-1.319-5.43-1.008-4.569-2.246-9.164-4.362-13.224C38.575 6.114 32.68 4 27.971 4c-4.365 0-7.626 2.066-10.188 4.668-.708.72-1.482 1.689-2.259 2.828 2.235.538 4.348 2.219 4.685 5.405.067.608.533 5.433 2.1 11.024.45-1.402 1.105-3.478 2.628-6.83.746-1.536 1.42-2.548 2.027-3.165.558-.567 1.06-.8 1.511-.8.488 0 2.152.445 3.771 6.127 2.01 7.045 3.505 18.258 9.2 24.21 2.513 2.627 6.03 4.326 10.902 4.326 4.275 0 7.84-1.882 10.382-4.5 4.178-4.305 6.468-11.423 7.285-14.057 2.324-7.493 2.975-14.27 3.05-14.987.433-4.097-3.02-6.948-6.463-6.948z" fill="url(#x)"/><path d="M66.602 11.3c-.481 0-.966.046-1.441.14 2.259 3.255 3.389 6.665 3.389 8.138 0 5.358-4.372 6.724-6.267 6.724-1.478 0-2.608-.353-3.504-.918l-.025.1c-.266 1.063-.476 2.227-.84 3.36-.7 2.177-1.643 4.664-2.65 6.588-1.087 2.075-2.162 3.29-3.444 3.226-1.457-.073-2.64-1.95-4.108-7.258-.474-1.711-.912-3.587-1.319-5.43-1.008-4.569-2.246-9.164-4.362-13.224C38.575 6.114 32.68 4 27.971 4c-4.365 0-7.626 2.066-10.188 4.668-.708.72-1.482 1.689-2.259 2.828 2.235.538 4.348 2.219 4.685 5.405.067.608.533 5.433 2.1 11.024.45-1.402 1.105-3.478 2.628-6.83.746-1.536 1.42-2.548 2.027-3.165.558-.567 1.06-.8 1.511-.8.488 0 2.152.445 3.771 6.127 2.01 7.045 3.505 18.258 9.2 24.21 2.513 2.627 6.03 4.326 10.902 4.326 4.275 0 7.84-1.882 10.382-4.5 4.178-4.305 6.468-11.423 7.285-14.057 2.324-7.493 2.975-14.27 3.05-14.987.433-4.097-3.02-6.948-6.463-6.948z" fill="url(#y)"/><path d="M27.792 51.604c-12.165 0-16.305-15.376-17.232-18.368-2.33-7.51-3.038-14.277-3.113-14.987-.433-4.097 2.855-6.948 6.463-6.948 2.732 0 5.903 1.634 6.323 5.6.073.668.629 6.42 2.593 12.69 2.051 6.542 4.227 9.058 5.793 9.058 2.53 0 4.074-6.495 5.438-12.678 1.005-4.556 2.092-9.147 4.238-13.225C42.028 5.65 47.668 4 52.54 4 63.226 4 68.573 16.373 68.573 19.58c0 5.357-4.371 6.724-6.266 6.724-4.144 0-5.55-2.776-6.732-5.208-1.063-2.189-2.174-4.009-3.61-4.009-.472 0-.91.24-1.314.65-3.57 3.627-4.767 22.598-11.904 29.848-3.957 4.02-8.262 4.02-10.955 4.02z" fill="url(#z)"/><path d="M27.792 51.604c-12.165 0-16.305-15.376-17.232-18.368-2.33-7.51-3.038-14.277-3.113-14.987-.433-4.097 2.855-6.948 6.463-6.948 2.732 0 5.903 1.634 6.323 5.6.073.668.629 6.42 2.593 12.69 2.051 6.542 4.227 9.058 5.793 9.058 2.53 0 4.074-6.495 5.438-12.678 1.005-4.556 2.092-9.147 4.238-13.225C42.028 5.65 47.668 4 52.54 4 63.226 4 68.573 16.373 68.573 19.58c0 5.357-4.371 6.724-6.266 6.724-4.144 0-5.55-2.776-6.732-5.208-1.063-2.189-2.174-4.009-3.61-4.009-.472 0-.91.24-1.314.65-3.57 3.627-4.767 22.598-11.904 29.848-3.957 4.02-8.262 4.02-10.955 4.02z" fill="url(#A)"/><path d="M27.792 51.604c-12.165 0-16.305-15.376-17.232-18.368-2.33-7.51-3.038-14.277-3.113-14.987-.433-4.097 2.855-6.948 6.463-6.948 2.732 0 5.903 1.634 6.323 5.6.073.668.629 6.42 2.593 12.69 2.051 6.542 4.227 9.058 5.793 9.058 2.53 0 4.074-6.495 5.438-12.678 1.005-4.556 2.092-9.147 4.238-13.225C42.028 5.65 47.668 4 52.54 4 63.226 4 68.573 16.373 68.573 19.58c0 5.357-4.371 6.724-6.266 6.724-4.144 0-5.55-2.776-6.732-5.208-1.063-2.189-2.174-4.009-3.61-4.009-.472 0-.91.24-1.314.65-3.57 3.627-4.767 22.598-11.904 29.848-3.957 4.02-8.262 4.02-10.955 4.02z" fill="url(#B)"/><path d="M27.792 51.604c-12.165 0-16.305-15.376-17.232-18.368-2.33-7.51-3.038-14.277-3.113-14.987-.433-4.097 2.855-6.948 6.463-6.948 2.732 0 5.903 1.634 6.323 5.6.073.668.629 6.42 2.593 12.69 2.051 6.542 4.227 9.058 5.793 9.058 2.53 0 4.074-6.495 5.438-12.678 1.005-4.556 2.092-9.147 4.238-13.225C42.028 5.65 47.668 4 52.54 4 63.226 4 68.573 16.373 68.573 19.58c0 5.357-4.371 6.724-6.266 6.724-4.144 0-5.55-2.776-6.732-5.208-1.063-2.189-2.174-4.009-3.61-4.009-.472 0-.91.24-1.314.65-3.57 3.627-4.767 22.598-11.904 29.848-3.957 4.02-8.262 4.02-10.955 4.02z" fill="url(#C)"/><path d="M27.792 51.604c-12.165 0-16.305-15.376-17.232-18.368-2.33-7.51-3.038-14.277-3.113-14.987-.433-4.097 2.855-6.948 6.463-6.948 2.732 0 5.903 1.634 6.323 5.6.073.668.629 6.42 2.593 12.69 2.051 6.542 4.227 9.058 5.793 9.058 2.53 0 4.074-6.495 5.438-12.678 1.005-4.556 2.092-9.147 4.238-13.225C42.028 5.65 47.668 4 52.54 4 63.226 4 68.573 16.373 68.573 19.58c0 5.357-4.371 6.724-6.266 6.724-4.144 0-5.55-2.776-6.732-5.208-1.063-2.189-2.174-4.009-3.61-4.009-.472 0-.91.24-1.314.65-3.57 3.627-4.767 22.598-11.904 29.848-3.957 4.02-8.262 4.02-10.955 4.02z" fill="url(#D)"/><defs><radialGradient id="b" cx="0" cy="0" r="1" gradientUnits="userSpaceOnUse" gradientTransform="rotate(-120.873 24.541 5.5) scale(28.1405 23.6295)"><stop stop-color="#007383"/><stop offset=".408" stop-color="#00717E" stop-opacity=".75"/><stop offset=".874" stop-color="#007281" stop-opacity="0"/></radialGradient><radialGradient id="c" cx="0" cy="0" r="1" gradientUnits="userSpaceOnUse" gradientTransform="rotate(-126.749 31.509 -.686) scale(22.9508 15.0821)"><stop stop-color="#218970"/><stop offset=".46" stop-color="#267E6A"/><stop offset="1" stop-color="#026C51" stop-opacity="0"/></radialGradient><radialGradient id="d" cx="0" cy="0" r="1" gradientUnits="userSpaceOnUse" gradientTransform="matrix(-5.61289 -17.82675 9.29125 -2.92542 30.792 30.715)"><stop stop-color="#178697"/><stop offset=".408" stop-color="#17838F" stop-opacity=".79"/><stop offset=".874" stop-color="#007281" stop-opacity="0"/></radialGradient><radialGradient id="e" cx="0" cy="0" r="1" gradientUnits="userSpaceOnUse" gradientTransform="rotate(-120.873 28.236 4.217) scale(47.4658 14.6452)"><stop stop-color="#25342F" stop-opacity=".3"/><stop offset="1" stop-color="#25342F" stop-opacity="0"/></radialGradient><radialGradient id="f" cx="0" cy="0" r="1" gradientUnits="userSpaceOnUse" gradientTransform="rotate(85.095 10.348 38.252) scale(17.8746 10.1435)"><stop stop-color="#056D4F"/><stop offset=".233" stop-color="#056C4E" stop-opacity=".75"/><stop offset=".599" stop-color="#056C4E" stop-opacity=".301"/><stop offset=".874" stop-color="#056C4F" stop-opacity="0"/></radialGradient><radialGradient id="g" cx="0" cy="0" r="1" gradientUnits="userSpaceOnUse" gradientTransform="rotate(57.064 28.08 42.363) scale(21.0151 11.0248)"><stop stop-color="#22B67B"/><stop offset=".408" stop-color="#24BE82"/><stop offset="1" stop-color="#24BE82" stop-opacity=".07"/></radialGradient><radialGradient id="i" cx="0" cy="0" r="1" gradientUnits="userSpaceOnUse" gradientTransform="matrix(17.77702 20.91432 -20.8638 17.73408 -2.213 -.029)"><stop stop-color="#09F8FF"/><stop offset="1" stop-color="#0BF7F9" stop-opacity="0"/></radialGradient><radialGradient id="j" cx="0" cy="0" r="1" gradientUnits="userSpaceOnUse" gradientTransform="matrix(37.25428 41.37043 -41.30756 37.19767 19.78 -13.845)"><stop stop-color="#00B8FF"/><stop offset=".745" stop-color="#00B9FC" stop-opacity="0"/></radialGradient><radialGradient id="k" cx="0" cy="0" r="1" gradientUnits="userSpaceOnUse" gradientTransform="matrix(-8.05754 -25.59108 17.73947 -5.5854 22.73 27.902)"><stop stop-color="#00BCFF" stop-opacity=".76"/><stop offset=".573" stop-color="#00BAFC" stop-opacity="0"/></radialGradient><radialGradient id="l" cx="0" cy="0" r="1" gradientUnits="userSpaceOnUse" gradientTransform="matrix(-12.0865 -14.62826 10.24221 -8.46256 63.537 17.712)"><stop stop-color="#5FEC50"/><stop offset="1" stop-color="#3CC08E" stop-opacity="0"/></radialGradient><radialGradient id="m" cx="0" cy="0" r="1" gradientUnits="userSpaceOnUse" gradientTransform="matrix(1.0872 -5.63982 3.90266 .75232 60.82 29.931)"><stop stop-color="#28855B"/><stop offset="1" stop-color="#14795C" stop-opacity="0"/></radialGradient><radialGradient id="n" cx="0" cy="0" r="1" gradientUnits="userSpaceOnUse" gradientTransform="rotate(-77.874 48.533 -22.712) scale(4.73499 6.6205)"><stop stop-color="#28855B"/><stop offset="1" stop-color="#14795C" stop-opacity="0"/></radialGradient><radialGradient id="o" cx="0" cy="0" r="1" gradientUnits="userSpaceOnUse" gradientTransform="rotate(-132.805 37.675 -3.967) scale(15.7106 11.0373)"><stop stop-color="#5FF05B"/><stop offset=".813" stop-color="#5DE955" stop-opacity="0"/></radialGradient><radialGradient id="p" cx="0" cy="0" r="1" gradientUnits="userSpaceOnUse" gradientTransform="rotate(37.441 -6.973 103.146) scale(13.9731 19.4197)"><stop stop-color="#123AA8"/><stop offset=".966" stop-color="#123AA8" stop-opacity="0"/></radialGradient><radialGradient id="q" cx="0" cy="0" r="1" gradientUnits="userSpaceOnUse" gradientTransform="rotate(8.482 -153.596 403.229) scale(16.49 24.6014)"><stop stop-color="#123AA8"/><stop offset=".592" stop-color="#123AA8" stop-opacity="0"/></radialGradient><radialGradient id="r" cx="0" cy="0" r="1" gradientUnits="userSpaceOnUse" gradientTransform="matrix(12.8012 5.87483 -10.46473 22.80257 59.132 29.109)"><stop stop-color="#123AA8"/><stop offset=".757" stop-color="#123AA8" stop-opacity="0"/></radialGradient><radialGradient id="s" cx="0" cy="0" r="1" gradientUnits="userSpaceOnUse" gradientTransform="rotate(95.806 15.212 40.936) scale(25.3093 13.8769)"><stop stop-color="#123AA8"/><stop offset=".592" stop-color="#123AA8" stop-opacity="0"/><stop offset="1" stop-color="#123AA8" stop-opacity="0"/></radialGradient><radialGradient id="t" cx="0" cy="0" r="1" gradientUnits="userSpaceOnUse" gradientTransform="matrix(-1.94918 30.39627 -10.8534 -.69598 61.27 18.77)"><stop stop-color="#123AA8"/><stop offset=".885" stop-color="#123AA8" stop-opacity="0"/></radialGradient><radialGradient id="u" cx="0" cy="0" r="1" gradientUnits="userSpaceOnUse" gradientTransform="matrix(1.45732 16.09697 -8.53243 .77247 26.734 25.102)"><stop stop-color="#123AA8"/><stop offset=".885" stop-color="#123AA8" stop-opacity="0"/></radialGradient><radialGradient id="v" cx="0" cy="0" r="1" gradientUnits="userSpaceOnUse" gradientTransform="rotate(87.249 -.035 26.787) scale(16.8684 13.9336)"><stop stop-color="#123AA8"/><stop offset=".885" stop-color="#123AA8" stop-opacity="0"/></radialGradient><radialGradient id="w" cx="0" cy="0" r="1" gradientUnits="userSpaceOnUse" gradientTransform="rotate(-23.162 116.264 -53.878) scale(18.8196 36.7725)"><stop stop-color="#123AA8"/><stop offset=".709" stop-color="#123AA8" stop-opacity="0"/></radialGradient><radialGradient id="x" cx="0" cy="0" r="1" gradientUnits="userSpaceOnUse" gradientTransform="matrix(-11.68164 -4.35922 7.46121 -19.99421 23.866 21.413)"><stop stop-color="#1A3DA0"/><stop offset=".709" stop-color="#123AA8" stop-opacity="0"/></radialGradient><radialGradient id="y" cx="0" cy="0" r="1" gradientUnits="userSpaceOnUse" gradientTransform="rotate(16.741 -80.733 56.629) scale(23.7814 23.9966)"><stop stop-color="#1E3882"/><stop offset=".761" stop-color="#123AA8" stop-opacity="0"/></radialGradient><radialGradient id="A" cx="0" cy="0" r="1" gradientUnits="userSpaceOnUse" gradientTransform="matrix(17.77702 20.91432 -20.8638 17.73408 -2.215 -.03)"><stop stop-color="#09F8FF"/><stop offset="1" stop-color="#0BF7F9" stop-opacity="0"/></radialGradient><radialGradient id="D" cx="0" cy="0" r="1" gradientUnits="userSpaceOnUse" gradientTransform="matrix(-8.05754 -25.59108 17.73947 -5.5854 22.728 27.902)"><stop stop-color="#00BCFF" stop-opacity=".76"/><stop offset=".573" stop-color="#00BAFC" stop-opacity="0"/></radialGradient><linearGradient id="a" x1="61.917" y1="17.967" x2="18.95" y2="32.066" gradientUnits="userSpaceOnUse"><stop stop-color="#5CEE64"/><stop offset="1" stop-color="#0BF"/></linearGradient><linearGradient id="h" x1="-8.756" y1="27.387" x2="21.698" y2="27.637" gradientUnits="userSpaceOnUse"><stop stop-color="#09F8FF"/><stop offset="1" stop-color="#0BF7F9" stop-opacity="0"/></linearGradient><linearGradient id="z" x1="5.43" y1="12.507" x2="28.859" y2="27.468" gradientUnits="userSpaceOnUse"><stop offset=".229" stop-color="#1DC4FF"/><stop offset="1" stop-color="#1CC1FF" stop-opacity="0"/></linearGradient><linearGradient id="B" x1="6.726" y1="13.271" x2="13.296" y2="19.23" gradientUnits="userSpaceOnUse"><stop stop-color="#26FBFF"/><stop offset=".637" stop-color="#0BF7F9" stop-opacity="0"/></linearGradient><linearGradient id="C" x1="4.979" y1="17.83" x2="14.072" y2="18.479" gradientUnits="userSpaceOnUse"><stop stop-color="#26FBFF"/><stop offset=".637" stop-color="#0BF7F9" stop-opacity="0"/></linearGradient></defs></svg>