<svg width="80" height="56" fill="none" xmlns="http://www.w3.org/2000/svg"><path d="M42.013 17.62c4.854 0 8.79-3.945 8.79-8.81 0-4.866-3.936-8.81-8.79-8.81-4.854 0-8.789 3.944-8.789 8.81 0 4.865 3.935 8.81 8.79 8.81z" fill="#7B83EB"/><path opacity=".1" d="M41.386 10.697h-7.96l.038.175.005.014.042.163c1.201 4.568 5.781 7.374 10.385 6.364v-4.202a2.52 2.52 0 00-2.51-2.514z" fill="#000"/><path opacity=".2" d="M39.503 12.585h-5.43a8.787 8.787 0 007.94 5.035V15.1a2.521 2.521 0 00-2.51-2.515z" fill="#000"/><path d="M61.786 18.247c3.64 0 6.59-2.958 6.59-6.606 0-3.648-2.95-6.606-6.59-6.606-3.64 0-6.59 2.958-6.59 6.606 0 3.648 2.95 6.606 6.59 6.606zM67.437 20.136H52.634c-.667 0-1.206.54-1.206 1.209v15.307c-.084 4.566 3.03 8.57 7.47 9.597 5.094 1.071 10.093-2.2 11.162-7.309a9.503 9.503 0 00.2-1.934V22.967a2.827 2.827 0 00-2.823-2.831z" fill="#5059C9"/><path d="M57.079 22.967v17.932c.005 8.335-6.733 15.096-15.048 15.1a15.053 15.053 0 01-13.05-7.548 13.542 13.542 0 01-.942-1.888 15.441 15.441 0 01-.62-1.887 15.553 15.553 0 01-.47-3.775V22.967a2.825 2.825 0 012.816-2.831h24.489a2.825 2.825 0 012.825 2.824v.007z" fill="#7B83EB"/><path opacity=".2" d="M39.503 12.585h-5.43a8.787 8.787 0 007.94 5.035V15.1a2.521 2.521 0 00-2.51-2.515z" fill="#000"/><path opacity=".1" d="M43.896 20.136v23.916a2.491 2.491 0 01-1.959 2.435c-.176.052-.36.079-.546.076H28.04a15.442 15.442 0 01-.62-1.887 15.542 15.542 0 01-.47-3.775V22.967a2.825 2.825 0 012.816-2.831h14.129z" fill="#000"/><path opacity=".2" d="M42.013 20.136v25.803c.003.184-.022.369-.076.548a2.488 2.488 0 01-2.43 1.964H28.984a13.543 13.543 0 01-.942-1.888 15.446 15.446 0 01-.62-1.887 15.543 15.543 0 01-.47-3.775V22.967a2.825 2.825 0 012.816-2.831H42.013z" fill="#000"/><path opacity=".2" d="M42.013 20.136v22.028a2.52 2.52 0 01-2.505 2.512h-12.09a15.552 15.552 0 01-.47-3.775V22.967a2.825 2.825 0 012.817-2.831h12.248z" fill="#000"/><path opacity=".2" d="M29.772 20.136a2.825 2.825 0 00-2.824 2.824v17.939c.003 1.273.16 2.54.47 3.774h10.207a2.521 2.521 0 002.505-2.511V20.136H29.772z" fill="#000"/><path d="M12.51 12.585h25.11a2.514 2.514 0 012.51 2.516V40.27a2.514 2.514 0 01-2.51 2.516H12.51A2.512 2.512 0 0110 40.27V15.1a2.514 2.514 0 012.51-2.515z" fill="#4B53BC"/><path d="M32.56 21.977h-5.632v15.138h-3.694V21.977H17.57v-3.72h14.99v3.72z" fill="#fff"/></svg>