<svg width="80" height="56" fill="none" xmlns="http://www.w3.org/2000/svg"><path d="M46.372 30.8L42.175 0h-.313C26.6.045 14.24 12.414 14.195 27.686V28l32.177 2.8z" fill="#ED6C47"/><path d="M42.491 0h-.313v28l13.99 5.6 13.99-5.6v-.314C70.112 12.414 57.751.045 42.49 0z" fill="#FF8F6B"/><path d="M70.155 28v.308C70.11 43.584 57.747 55.956 42.483 56h-.616c-15.264-.044-27.628-12.416-27.672-27.692V28h55.96z" fill="#D35230"/><path opacity=".1" d="M43.574 13.762v29.876a2.578 2.578 0 01-1.595 2.366 2.48 2.48 0 01-.965.196H20.798c-.391-.448-.769-.924-1.119-1.4a27.472 27.472 0 01-5.484-16.492v-.616A27.39 27.39 0 0118.7 12.6c.308-.476.63-.952.98-1.4h21.334a2.58 2.58 0 012.56 2.562z" fill="#000"/><path opacity=".2" d="M42.174 15.162v29.876c0 .331-.067.66-.196.966a2.576 2.576 0 01-2.364 1.596H22.07c-.443-.45-.868-.917-1.274-1.4-.391-.449-.769-.925-1.119-1.4a27.472 27.472 0 01-5.484-16.492v-.616A27.39 27.39 0 0118.7 12.6h20.915a2.58 2.58 0 012.56 2.562z" fill="#000"/><path opacity=".2" d="M42.175 15.162v27.075a2.58 2.58 0 01-2.56 2.563H19.679a27.472 27.472 0 01-5.484-16.492v-.616A27.39 27.39 0 0118.7 12.6h20.915a2.58 2.58 0 012.56 2.562z" fill="#000"/><path opacity=".2" d="M40.776 15.162v27.075a2.58 2.58 0 01-2.56 2.563H19.679a27.472 27.472 0 01-5.484-16.492v-.616A27.39 27.39 0 0118.7 12.6h19.516a2.58 2.58 0 012.56 2.562z" fill="#000"/><path d="M12.564 12.6h25.65a2.565 2.565 0 012.564 2.566v25.667a2.565 2.565 0 01-2.565 2.567H12.564A2.565 2.565 0 0110 40.833V15.166a2.565 2.565 0 012.564-2.566z" fill="url(#paint0_linear)"/><path d="M25.668 19.444a7.046 7.046 0 014.67 1.37 4.9 4.9 0 011.626 3.966 5.522 5.522 0 01-.802 2.963 5.358 5.358 0 01-2.276 2.014 7.723 7.723 0 01-3.423.72h-3.245v6.033h-3.322V19.444h6.772zm-3.452 8.425h2.86a3.711 3.711 0 002.527-.754 2.802 2.802 0 00.855-2.208c0-1.88-1.092-2.821-3.276-2.821h-2.966v5.783z" fill="#fff"/><defs><linearGradient id="paint0_linear" x1="15.347" y1="10.595" x2="35.453" y2="45.392" gradientUnits="userSpaceOnUse"><stop stop-color="#CA4C28"/><stop offset=".5" stop-color="#C5401E"/><stop offset="1" stop-color="#B62F14"/></linearGradient></defs></svg>