<svg width="110" height="32" viewBox="0 0 110 32" fill="none" xmlns="http://www.w3.org/2000/svg">
<path d="M25.6498 21.9099L25.6345 21.8612L35.3318 12.9836V8.70605H19.7741V12.9836H29.0667L29.0821 13.0245L19.4795 21.9099V26.1874H35.488V21.9099H25.6498Z" fill="#201515"/>
<path d="M45.0393 8.29932C43.2448 8.29932 41.7823 8.56992 40.6519 9.11126C39.5988 9.58297 38.7118 10.3603 38.1059 11.3422C37.5262 12.3306 37.1622 13.4304 37.0378 14.5695L41.7584 15.2329C41.9291 14.2271 42.2707 13.5142 42.7829 13.0942C43.3653 12.6548 44.0829 12.4328 44.8115 12.4667C45.7697 12.4667 46.4646 12.7227 46.8963 13.235C47.3244 13.7473 47.542 14.4568 47.542 15.3917V15.8579H43.0032C40.6928 15.8579 39.0331 16.3702 38.0239 17.3947C37.0147 18.4192 36.511 19.7717 36.5127 21.4519C36.5127 23.1731 37.0164 24.4538 38.0239 25.2939C39.0314 26.1341 40.2984 26.5515 41.825 26.5464C43.7187 26.5464 45.1754 25.895 46.1946 24.5921C46.7969 23.7915 47.2268 22.8749 47.4574 21.9001H47.6289L48.2796 26.1776H52.5569V15.3456C52.5569 13.107 51.9672 11.373 50.7872 10.1435C49.6073 8.91401 47.6912 8.29932 45.0393 8.29932ZM46.5354 21.6517C45.8565 22.2177 44.9677 22.4995 43.8612 22.4995C42.9494 22.4995 42.3159 22.3398 41.9607 22.0205C41.7877 21.8694 41.65 21.6821 41.5575 21.4719C41.465 21.2616 41.4199 21.0335 41.4254 20.8039C41.4153 20.5873 41.4494 20.3709 41.5256 20.1679C41.6017 19.9649 41.7184 19.7795 41.8685 19.6231C42.0309 19.4708 42.2224 19.3531 42.4315 19.2769C42.6406 19.2008 42.863 19.1678 43.0852 19.1799H47.5497V19.4745C47.5586 19.8909 47.4717 20.3037 47.2962 20.6812C47.1202 21.0587 46.86 21.3908 46.5354 21.6517Z" fill="#201515"/>
<path d="M78.4216 8.70605H73.3682V26.1899H78.4216V8.70605Z" fill="#201515"/>
<path d="M108.259 8.70605C106.831 8.70605 105.706 9.20978 104.883 10.2173C104.292 10.9413 103.843 12.0111 103.536 13.4266H103.387L102.726 8.70605H98.4102V26.1874H103.464V17.2226C103.464 16.0922 103.729 15.2256 104.258 14.6228C104.787 14.02 105.764 13.7187 107.188 13.7187H109.106V8.70605H108.259Z" fill="#201515"/>
<path d="M93.3953 9.27723C92.2158 8.5754 90.7273 8.22536 88.9312 8.22706C86.1033 8.22706 83.8903 9.0322 82.2921 10.6424C80.6935 12.2527 79.8946 14.4725 79.8946 17.302C79.8539 19.0126 80.2273 20.7077 80.9832 22.2429C81.6751 23.6108 82.7525 24.7462 84.0824 25.5086C85.4209 26.2821 87.0132 26.6697 88.8595 26.6714C90.4559 26.6714 91.7895 26.4255 92.8601 25.9338C93.8668 25.4921 94.7431 24.7999 95.4063 23.9231C96.0373 23.0624 96.5061 22.0937 96.7891 21.0646L92.4352 19.8454C92.2516 20.5146 91.8987 21.1251 91.4106 21.6179C90.9185 22.1096 90.0945 22.3556 88.9388 22.3556C87.564 22.3556 86.5395 21.9619 85.8651 21.1748C85.3756 20.6062 85.0685 19.7942 84.9328 18.7415H96.8558C96.9046 18.2497 96.9302 17.8373 96.9302 17.5043V16.4158C96.9588 14.9533 96.657 13.5033 96.0467 12.1741C95.4753 10.9633 94.551 9.95345 93.3953 9.27723ZM88.7852 12.3944C90.8343 12.3944 91.9959 13.4027 92.2708 15.4194H85.0223C85.1374 14.7465 85.4164 14.1123 85.8342 13.5726C86.4987 12.7855 87.4821 12.3927 88.7852 12.3944Z" fill="#201515"/>
<path d="M75.9501 1.65984C75.5699 1.64691 75.191 1.71054 74.8359 1.84694C74.4808 1.98335 74.1571 2.18974 73.883 2.45386C73.6135 2.72051 73.4016 3.04037 73.2619 3.39311C73.1222 3.74585 73.0573 4.12378 73.0712 4.50295C73.0577 4.88457 73.1227 5.26491 73.2628 5.62023C73.4025 5.97555 73.6143 6.29824 73.8844 6.56812C74.1544 6.83801 74.4773 7.04933 74.8328 7.18891C75.1884 7.32848 75.5685 7.39333 75.9501 7.37935C76.3293 7.39368 76.7073 7.32889 77.0602 7.18913C77.413 7.04933 77.7327 6.83761 77.9992 6.56741C78.2638 6.29443 78.4698 5.97084 78.606 5.61606C78.7421 5.26128 78.8048 4.88265 78.7909 4.50295C78.8084 4.1255 78.747 3.74855 78.6104 3.39617C78.4738 3.0438 78.2656 2.72374 77.9987 2.45644C77.7314 2.18913 77.4117 1.98046 77.0593 1.84374C76.7073 1.70702 76.3302 1.64526 75.9527 1.66241L75.9501 1.65984Z" fill="#201515"/>
<path d="M65.5103 8.22705C63.7889 8.22705 62.4057 8.7675 61.361 9.84839C60.5872 10.6492 60.0194 11.8445 59.6576 13.4343H59.4964L58.8354 8.71372H54.5195V31.2127H59.5729V21.9457H59.7574C59.9115 22.5636 60.1277 23.1643 60.4027 23.7387C60.8303 24.6743 61.5316 25.4583 62.4138 25.9876C63.3282 26.4867 64.3585 26.735 65.4001 26.7073C67.516 26.7073 69.1267 25.8834 70.2332 24.2356C71.3397 22.5878 71.8932 20.2885 71.8932 17.3379C71.8932 14.4879 71.3576 12.257 70.2874 10.645C69.2167 9.03304 67.6243 8.22705 65.5103 8.22705ZM66.0226 20.8956C65.4333 21.7493 64.5112 22.1762 63.2561 22.1762C62.7389 22.2001 62.223 22.1004 61.7519 21.8852C61.2804 21.6701 60.8671 21.3458 60.5464 20.9391C59.8922 20.1178 59.5662 18.9933 59.568 17.5658V17.2328C59.568 15.7831 59.894 14.6731 60.5464 13.903C61.1984 13.1329 62.1021 12.7521 63.2561 12.7606C64.5336 12.7606 65.4615 13.1662 66.0405 13.9773C66.6195 14.7884 66.9087 15.9197 66.9087 17.3711C66.9123 18.872 66.6186 20.0469 66.0275 20.8956H66.0226Z" fill="#201515"/>
<path d="M17.5258 21.9102H0.0419922V26.1928H17.5258V21.9102Z" fill="#FF4F00"/>
</svg>
